<svg width="72" height="86" viewBox="0 0 72 86" fill="none" xmlns="http://www.w3.org/2000/svg">
<path d="M71.3702 20.8486V20.4268H71.3358C71.129 15.2245 67.6829 10.0574 60.9457 6.103C47.1267 -2.03433 24.7269 -2.03433 10.9941 6.103C4.11911 10.1805 0.707444 15.5233 0.724674 20.8662V31.8859V32.0792V42.9055V43.0989V53.9252V54.1185V65.1382C0.759136 70.4811 4.23972 75.8239 11.1492 79.8838C18.0759 83.9613 27.122 86 36.1508 86C45.1969 86 54.2085 83.9613 61.1008 79.8838C67.9758 75.8064 71.3874 70.4635 71.3702 65.1382V54.1185V53.5034V43.0989V42.4486V32.044V31.4289V20.8486C71.3702 20.8662 71.3702 20.8486 71.3702 20.8486ZM18.1793 14.2403L20.0919 13.1155C20.5743 12.8343 21.3325 12.8343 21.8322 13.1155L24.1928 14.504C24.7097 14.1876 25.2438 13.8888 25.7608 13.5725L23.4002 12.184C22.9177 11.9028 22.9177 11.4459 23.4002 11.1647L25.3128 10.0399C25.7952 9.75865 26.5706 9.75865 27.0531 10.0399L30.0684 11.8149L30.4647 11.6919C33.8419 10.6374 37.4259 10.1629 41.2511 10.4441C44.2492 10.6726 46.9372 11.3931 49.4012 12.4477C50.3661 12.8519 51.2621 13.3088 52.0719 13.7834C54.2085 15.0488 55.8454 16.5251 57.1205 18.1948L57.379 18.6517C57.6719 19.2668 57.3273 19.6887 56.3107 19.9347C55.2424 20.2159 54.1568 20.462 53.0713 20.708C52.3131 20.8662 51.779 20.831 51.3138 20.5498C51.1932 20.4795 51.0898 20.3917 50.9692 20.3038C50.2455 19.6184 49.5907 18.8802 48.8153 18.2123C48.1261 17.5972 47.368 17.0172 46.5064 16.5075C45.3692 15.8397 44.0597 15.2773 42.4917 14.8906C40.1483 14.2931 37.8567 14.4337 35.5478 14.9785L35.4616 14.9961L41.3028 18.4408C41.7852 18.722 41.7852 19.179 41.3028 19.4602L39.3902 20.585C38.9077 20.8662 38.1324 20.8662 37.6499 20.585L30.9472 16.6481C30.4475 16.9469 29.9133 17.2633 29.3792 17.5796L36.0819 21.5165C36.5644 21.7977 36.5644 22.2546 36.0819 22.5358L34.1693 23.6607C33.6868 23.9419 32.9287 23.9419 32.429 23.6607L26.3121 20.0577C24.9509 21.745 24.5202 23.4146 26.0537 25.1546C26.7084 25.8927 27.5527 26.543 28.5349 27.123C29.3964 27.6327 30.3441 28.072 31.3607 28.4763C32.4979 28.8981 33.7041 29.2847 34.8758 29.7241C35.0653 29.7944 35.2204 29.8647 35.3582 29.9526C35.8234 30.2338 35.8924 30.5501 35.6167 30.9895C35.2204 31.6574 34.7724 32.3077 34.2899 32.9404C33.8936 33.5204 33.1527 33.7313 32.0844 33.5204C31.0161 33.2743 29.965 32.9755 28.9312 32.6416C27.0358 32.0089 25.33 31.2707 23.8482 30.392C22.2974 29.4781 20.9879 28.4235 19.9368 27.2284C17.4728 24.3812 17.5245 21.4813 19.5405 18.5638C19.9368 17.9839 20.4882 17.4742 20.9707 16.9293L18.1104 15.2421C17.6968 14.9785 17.6968 14.5215 18.1793 14.2403ZM11.1492 35.6118C24.9854 43.7667 47.3507 43.7667 61.1008 35.6118C63.2374 34.3464 65.0121 32.9404 66.4767 31.4641V32.0792C66.4939 35.7348 63.6337 39.5487 58.6368 42.5013C52.7095 46.0163 44.7317 47.9496 36.1508 47.9496C27.57 47.9496 19.5405 46.0163 13.5787 42.5013C8.53015 39.5311 5.61817 35.6997 5.58371 32.0616V31.341C7.11723 32.8525 8.94368 34.3112 11.1492 35.6118ZM58.654 64.5231C52.7267 68.0381 44.7489 69.9714 36.1681 69.9714C27.5872 69.9714 19.5577 68.0381 13.5959 64.5231C8.54738 61.5529 5.6354 57.7215 5.60094 54.0834V53.5561C7.11723 55.0852 8.92645 56.5263 11.1492 57.8269C18.0759 61.9044 27.122 63.9431 36.1508 63.9431C45.1969 63.9431 54.2085 61.9044 61.1008 57.8269C63.2374 56.5615 65.0121 55.1555 66.4767 53.6791V54.1185C66.5112 57.7742 63.6509 61.5704 58.654 64.5231ZM58.654 53.521C52.7267 57.036 44.7489 58.9693 36.1681 58.9693C27.5872 58.9693 19.5577 57.036 13.5959 53.521C8.54738 50.5508 5.6354 46.7194 5.60094 43.0813V42.554C7.11723 44.0831 8.92645 45.5242 11.1492 46.8248C18.0759 50.9023 27.122 52.941 36.1508 52.941C45.1969 52.941 54.2085 50.9023 61.1008 46.8248C63.2374 45.5594 65.0121 44.1534 66.4767 42.6771V43.1164C66.5112 46.7545 63.6509 50.5508 58.654 53.521ZM58.654 75.5427C52.7267 79.0578 44.7489 80.9911 36.1681 80.9911C27.5872 80.9911 19.5577 79.0578 13.5959 75.5427C8.54738 72.5725 5.6354 68.7411 5.60094 65.1031V64.5758C7.11723 66.1048 8.92645 67.546 11.1492 68.8466C18.0759 72.924 27.122 74.9628 36.1508 74.9628C45.1969 74.9628 54.2085 72.924 61.1008 68.8466C63.2374 67.5812 65.0121 66.1751 66.4767 64.6988V65.1382C66.5112 68.7763 63.6509 72.5901 58.654 75.5427Z" fill="#54BD95"/>
</svg>
