<svg width="32" height="32" viewBox="0 0 32 32" fill="none" xmlns="http://www.w3.org/2000/svg">
<path d="M4 10.6667L14.52 16.3467C14.9582 16.6391 15.4732 16.7951 16 16.7951C16.5268 16.7951 17.0418 16.6391 17.48 16.3467L28 10.6667M6.66667 25.3334H25.3333C26.0406 25.3334 26.7189 25.0525 27.219 24.5524C27.719 24.0523 28 23.374 28 22.6667V9.33341C28 8.62617 27.719 7.94789 27.219 7.4478C26.7189 6.9477 26.0406 6.66675 25.3333 6.66675H6.66667C5.95942 6.66675 5.28115 6.9477 4.78105 7.4478C4.28095 7.94789 4 8.62617 4 9.33341V22.6667C4 23.374 4.28095 24.0523 4.78105 24.5524C5.28115 25.0525 5.95942 25.3334 6.66667 25.3334Z" stroke="black" stroke-width="2" stroke-linecap="round" stroke-linejoin="round"/>
</svg>
