<svg width="31" height="31" viewBox="0 0 31 31" fill="none" xmlns="http://www.w3.org/2000/svg">
<rect width="31" height="31" rx="15.5" fill="#FF0000"/>
<path d="M14.224 19.96V8.2H16.696V19.96H14.224ZM15.472 25.312C15.048 25.312 14.688 25.164 14.392 24.868C14.104 24.572 13.96 24.212 13.96 23.788C13.96 23.372 14.104 23.02 14.392 22.732C14.688 22.444 15.048 22.3 15.472 22.3C15.88 22.3 16.228 22.444 16.516 22.732C16.804 23.02 16.948 23.372 16.948 23.788C16.948 24.212 16.804 24.572 16.516 24.868C16.228 25.164 15.88 25.312 15.472 25.312Z" fill="white"/>
</svg>
