<svg width="552" height="500" viewBox="0 0 552 500" fill="none" xmlns="http://www.w3.org/2000/svg">
<rect width="552" height="500" rx="20" fill="#52BD94"/>
<rect x="21" y="15" width="49" height="49" rx="10" fill="#4535AF"/>
<rect x="468" y="54" width="60" height="60" rx="10" fill="#FBC75E"/>
<path d="M497 74.4L499.508 79.512L505.4 80.4L501.2 84.888L502.016 90.888L497 88.524L491.984 90.888L492.8 84.888L488.6 80.4L494.492 79.512L497 74.4Z" fill="white"/>
<rect x="36" y="415" width="49" height="49" rx="10" fill="#FFAA94"/>
<path d="M51.5996 436.4L58.7996 430.4L65.9996 436.4V449.6C65.9996 450.237 65.7468 450.847 65.2966 451.297C64.8465 451.747 64.2361 452 63.5996 452H53.9996C53.3631 452 52.7526 451.747 52.3026 451.297C51.8525 450.847 51.5996 450.237 51.5996 449.6V436.4Z" stroke="white" stroke-width="2" stroke-linecap="round" stroke-linejoin="round"/>
<g filter="url(#filter0_d_6052_68)">
<rect x="60" y="120" width="280" height="96" rx="10" fill="white"/>
</g>
<path d="M78.642 148L76.2557 139.273H77.3295L79.1534 146.381H79.2386L81.0966 139.273H82.2898L84.1477 146.381H84.233L86.0568 139.273H87.1307L84.7443 148H83.6534L81.7273 141.045H81.6591L79.733 148H78.642ZM90.446 148.136C89.8153 148.136 89.2713 147.997 88.8139 147.719C88.3594 147.438 88.0085 147.045 87.7614 146.543C87.517 146.037 87.3949 145.449 87.3949 144.778C87.3949 144.108 87.517 143.517 87.7614 143.006C88.0085 142.491 88.3523 142.091 88.7926 141.804C89.2358 141.514 89.7528 141.369 90.3438 141.369C90.6847 141.369 91.0213 141.426 91.3537 141.54C91.6861 141.653 91.9886 141.838 92.2614 142.094C92.5341 142.347 92.7514 142.682 92.9134 143.099C93.0753 143.517 93.1562 144.031 93.1562 144.642V145.068H88.1108V144.199H92.1335C92.1335 143.83 92.0597 143.5 91.9119 143.21C91.767 142.92 91.5597 142.692 91.2898 142.524C91.0227 142.357 90.7074 142.273 90.3438 142.273C89.9432 142.273 89.5966 142.372 89.304 142.571C89.0142 142.767 88.7912 143.023 88.6349 143.338C88.4787 143.653 88.4006 143.991 88.4006 144.352V144.932C88.4006 145.426 88.4858 145.845 88.6562 146.189C88.8295 146.53 89.0696 146.79 89.3764 146.969C89.6832 147.145 90.0398 147.233 90.446 147.233C90.7102 147.233 90.9489 147.196 91.1619 147.122C91.3778 147.045 91.5639 146.932 91.7202 146.781C91.8764 146.628 91.9972 146.437 92.0824 146.21L93.054 146.483C92.9517 146.812 92.7798 147.102 92.5384 147.352C92.2969 147.599 91.9986 147.793 91.6435 147.932C91.2884 148.068 90.8892 148.136 90.446 148.136ZM94.8224 148V139.273H95.8281V142.494H95.9134C95.9872 142.381 96.0895 142.236 96.2202 142.06C96.3537 141.881 96.544 141.722 96.7912 141.582C97.0412 141.44 97.3793 141.369 97.8054 141.369C98.3565 141.369 98.8423 141.507 99.2628 141.783C99.6832 142.058 100.011 142.449 100.247 142.955C100.483 143.46 100.601 144.057 100.601 144.744C100.601 145.438 100.483 146.038 100.247 146.547C100.011 147.053 99.6847 147.445 99.267 147.723C98.8494 147.999 98.3679 148.136 97.8224 148.136C97.402 148.136 97.0653 148.067 96.8125 147.928C96.5597 147.786 96.3651 147.625 96.2287 147.446C96.0923 147.264 95.9872 147.114 95.9134 146.994H95.794V148H94.8224ZM95.8111 144.727C95.8111 145.222 95.8835 145.658 96.0284 146.036C96.1733 146.411 96.3849 146.705 96.6634 146.918C96.9418 147.128 97.2827 147.233 97.6861 147.233C98.1065 147.233 98.4574 147.122 98.7386 146.901C99.0227 146.676 99.2358 146.375 99.3778 145.997C99.5227 145.616 99.5952 145.193 99.5952 144.727C99.5952 144.267 99.5241 143.852 99.3821 143.483C99.2429 143.111 99.0313 142.817 98.7472 142.601C98.4659 142.382 98.1122 142.273 97.6861 142.273C97.277 142.273 96.9332 142.376 96.6548 142.584C96.3764 142.788 96.1662 143.075 96.0241 143.445C95.8821 143.811 95.8111 144.239 95.8111 144.727ZM106.776 142.92L105.872 143.176C105.815 143.026 105.732 142.879 105.621 142.737C105.513 142.592 105.365 142.473 105.178 142.379C104.99 142.286 104.75 142.239 104.457 142.239C104.057 142.239 103.723 142.331 103.456 142.516C103.192 142.697 103.06 142.929 103.06 143.21C103.06 143.46 103.151 143.658 103.332 143.803C103.514 143.947 103.798 144.068 104.185 144.165L105.156 144.403C105.741 144.545 106.178 144.763 106.464 145.055C106.751 145.345 106.895 145.719 106.895 146.176C106.895 146.551 106.787 146.886 106.571 147.182C106.358 147.477 106.06 147.71 105.676 147.881C105.293 148.051 104.847 148.136 104.338 148.136C103.67 148.136 103.118 147.991 102.68 147.702C102.243 147.412 101.966 146.989 101.849 146.432L102.804 146.193C102.895 146.545 103.067 146.81 103.32 146.986C103.575 147.162 103.909 147.25 104.321 147.25C104.79 147.25 105.162 147.151 105.438 146.952C105.716 146.75 105.855 146.509 105.855 146.227C105.855 146 105.776 145.81 105.616 145.656C105.457 145.5 105.213 145.384 104.884 145.307L103.793 145.051C103.193 144.909 102.753 144.689 102.472 144.391C102.193 144.089 102.054 143.713 102.054 143.261C102.054 142.892 102.158 142.565 102.365 142.281C102.575 141.997 102.861 141.774 103.222 141.612C103.585 141.45 103.997 141.369 104.457 141.369C105.105 141.369 105.614 141.511 105.983 141.795C106.355 142.08 106.619 142.455 106.776 142.92ZM108.409 148V141.455H109.414V148H108.409ZM108.92 140.364C108.724 140.364 108.555 140.297 108.413 140.163C108.274 140.03 108.204 139.869 108.204 139.682C108.204 139.494 108.274 139.334 108.413 139.2C108.555 139.067 108.724 139 108.92 139C109.116 139 109.284 139.067 109.423 139.2C109.565 139.334 109.636 139.494 109.636 139.682C109.636 139.869 109.565 140.03 109.423 140.163C109.284 140.297 109.116 140.364 108.92 140.364ZM114.103 141.455V142.307H110.711V141.455H114.103ZM111.7 139.886H112.705V146.125C112.705 146.409 112.746 146.622 112.829 146.764C112.914 146.903 113.022 146.997 113.153 147.045C113.286 147.091 113.427 147.114 113.575 147.114C113.685 147.114 113.776 147.108 113.847 147.097C113.918 147.082 113.975 147.071 114.018 147.062L114.222 147.966C114.154 147.991 114.059 148.017 113.937 148.043C113.815 148.071 113.66 148.085 113.472 148.085C113.188 148.085 112.91 148.024 112.637 147.902C112.367 147.78 112.143 147.594 111.964 147.344C111.788 147.094 111.7 146.778 111.7 146.398V139.886ZM118.29 148.136C117.659 148.136 117.115 147.997 116.658 147.719C116.203 147.438 115.852 147.045 115.605 146.543C115.361 146.037 115.239 145.449 115.239 144.778C115.239 144.108 115.361 143.517 115.605 143.006C115.852 142.491 116.196 142.091 116.636 141.804C117.08 141.514 117.597 141.369 118.188 141.369C118.528 141.369 118.865 141.426 119.197 141.54C119.53 141.653 119.832 141.838 120.105 142.094C120.378 142.347 120.595 142.682 120.757 143.099C120.919 143.517 121 144.031 121 144.642V145.068H115.955V144.199H119.977C119.977 143.83 119.903 143.5 119.756 143.21C119.611 142.92 119.403 142.692 119.134 142.524C118.866 142.357 118.551 142.273 118.188 142.273C117.787 142.273 117.44 142.372 117.148 142.571C116.858 142.767 116.635 143.023 116.479 143.338C116.322 143.653 116.244 143.991 116.244 144.352V144.932C116.244 145.426 116.33 145.845 116.5 146.189C116.673 146.53 116.913 146.79 117.22 146.969C117.527 147.145 117.884 147.233 118.29 147.233C118.554 147.233 118.793 147.196 119.006 147.122C119.222 147.045 119.408 146.932 119.564 146.781C119.72 146.628 119.841 146.437 119.926 146.21L120.898 146.483C120.795 146.812 120.624 147.102 120.382 147.352C120.141 147.599 119.842 147.793 119.487 147.932C119.132 148.068 118.733 148.136 118.29 148.136ZM126.399 148H125.291L128.496 139.273H129.587L132.791 148H131.683L129.075 140.653H129.007L126.399 148ZM126.808 144.591H131.274V145.528H126.808V144.591ZM135.02 144.062V148H134.014V141.455H134.986V142.477H135.071C135.224 142.145 135.457 141.878 135.77 141.676C136.082 141.472 136.486 141.369 136.98 141.369C137.423 141.369 137.811 141.46 138.143 141.642C138.476 141.821 138.734 142.094 138.919 142.46C139.104 142.824 139.196 143.284 139.196 143.841V148H138.19V143.909C138.19 143.395 138.057 142.994 137.79 142.707C137.523 142.418 137.156 142.273 136.69 142.273C136.369 142.273 136.082 142.342 135.83 142.482C135.58 142.621 135.382 142.824 135.237 143.091C135.092 143.358 135.02 143.682 135.02 144.062ZM142.96 148.153C142.545 148.153 142.169 148.075 141.831 147.919C141.493 147.76 141.224 147.531 141.025 147.233C140.826 146.932 140.727 146.568 140.727 146.142C140.727 145.767 140.801 145.463 140.949 145.23C141.096 144.994 141.294 144.81 141.541 144.676C141.788 144.543 142.061 144.443 142.359 144.378C142.66 144.31 142.963 144.256 143.267 144.216C143.664 144.165 143.987 144.126 144.234 144.101C144.484 144.072 144.666 144.026 144.779 143.96C144.896 143.895 144.954 143.781 144.954 143.619V143.585C144.954 143.165 144.839 142.838 144.609 142.605C144.382 142.372 144.037 142.256 143.574 142.256C143.093 142.256 142.717 142.361 142.444 142.571C142.172 142.781 141.98 143.006 141.869 143.244L140.914 142.903C141.085 142.506 141.312 142.196 141.596 141.974C141.883 141.75 142.196 141.594 142.534 141.506C142.875 141.415 143.21 141.369 143.539 141.369C143.75 141.369 143.991 141.395 144.264 141.446C144.539 141.494 144.805 141.595 145.061 141.749C145.319 141.902 145.534 142.134 145.704 142.443C145.875 142.753 145.96 143.168 145.96 143.688V148H144.954V147.114H144.903C144.835 147.256 144.721 147.408 144.562 147.57C144.403 147.732 144.191 147.869 143.927 147.983C143.663 148.097 143.341 148.153 142.96 148.153ZM143.113 147.25C143.511 147.25 143.846 147.172 144.119 147.016C144.395 146.859 144.602 146.658 144.741 146.411C144.883 146.163 144.954 145.903 144.954 145.631V144.71C144.912 144.761 144.818 144.808 144.673 144.851C144.531 144.891 144.366 144.926 144.179 144.957C143.994 144.986 143.814 145.011 143.637 145.034C143.464 145.054 143.324 145.071 143.216 145.085C142.954 145.119 142.71 145.175 142.483 145.251C142.258 145.325 142.076 145.437 141.937 145.588C141.801 145.736 141.733 145.937 141.733 146.193C141.733 146.543 141.862 146.807 142.12 146.986C142.382 147.162 142.713 147.25 143.113 147.25ZM148.801 139.273V148H147.795V139.273H148.801ZM151.291 150.455C151.12 150.455 150.968 150.44 150.835 150.412C150.701 150.386 150.609 150.361 150.558 150.335L150.814 149.449C151.058 149.511 151.274 149.534 151.461 149.517C151.649 149.5 151.815 149.416 151.96 149.266C152.108 149.118 152.243 148.878 152.365 148.545L152.552 148.034L150.132 141.455H151.223L153.029 146.67H153.098L154.904 141.455H155.995L153.217 148.955C153.092 149.293 152.937 149.572 152.752 149.794C152.568 150.018 152.353 150.185 152.109 150.293C151.868 150.401 151.595 150.455 151.291 150.455ZM160.169 141.455V142.307H156.777V141.455H160.169ZM157.766 139.886H158.772V146.125C158.772 146.409 158.813 146.622 158.895 146.764C158.98 146.903 159.088 146.997 159.219 147.045C159.353 147.091 159.493 147.114 159.641 147.114C159.752 147.114 159.843 147.108 159.914 147.097C159.985 147.082 160.042 147.071 160.084 147.062L160.289 147.966C160.221 147.991 160.125 148.017 160.003 148.043C159.881 148.071 159.726 148.085 159.539 148.085C159.255 148.085 158.976 148.024 158.703 147.902C158.434 147.78 158.209 147.594 158.03 147.344C157.854 147.094 157.766 146.778 157.766 146.398V139.886ZM161.682 148V141.455H162.688V148H161.682ZM162.194 140.364C161.998 140.364 161.828 140.297 161.686 140.163C161.547 140.03 161.478 139.869 161.478 139.682C161.478 139.494 161.547 139.334 161.686 139.2C161.828 139.067 161.998 139 162.194 139C162.39 139 162.557 139.067 162.696 139.2C162.838 139.334 162.909 139.494 162.909 139.682C162.909 139.869 162.838 140.03 162.696 140.163C162.557 140.297 162.39 140.364 162.194 140.364ZM167.189 148.136C166.575 148.136 166.047 147.991 165.604 147.702C165.161 147.412 164.82 147.013 164.581 146.504C164.342 145.996 164.223 145.415 164.223 144.761C164.223 144.097 164.345 143.51 164.589 143.001C164.837 142.49 165.18 142.091 165.621 141.804C166.064 141.514 166.581 141.369 167.172 141.369C167.632 141.369 168.047 141.455 168.416 141.625C168.786 141.795 169.088 142.034 169.324 142.341C169.56 142.648 169.706 143.006 169.763 143.415H168.757C168.68 143.116 168.51 142.852 168.246 142.622C167.984 142.389 167.632 142.273 167.189 142.273C166.797 142.273 166.453 142.375 166.158 142.58C165.865 142.781 165.636 143.067 165.472 143.436C165.31 143.803 165.229 144.233 165.229 144.727C165.229 145.233 165.308 145.673 165.467 146.048C165.629 146.423 165.857 146.714 166.149 146.922C166.445 147.129 166.791 147.233 167.189 147.233C167.45 147.233 167.688 147.188 167.901 147.097C168.114 147.006 168.294 146.875 168.442 146.705C168.589 146.534 168.695 146.33 168.757 146.091H169.763C169.706 146.477 169.565 146.825 169.341 147.135C169.119 147.442 168.825 147.686 168.459 147.868C168.095 148.047 167.672 148.136 167.189 148.136ZM175.869 142.92L174.966 143.176C174.909 143.026 174.825 142.879 174.714 142.737C174.607 142.592 174.459 142.473 174.271 142.379C174.084 142.286 173.844 142.239 173.551 142.239C173.151 142.239 172.817 142.331 172.55 142.516C172.286 142.697 172.153 142.929 172.153 143.21C172.153 143.46 172.244 143.658 172.426 143.803C172.608 143.947 172.892 144.068 173.278 144.165L174.25 144.403C174.835 144.545 175.271 144.763 175.558 145.055C175.845 145.345 175.989 145.719 175.989 146.176C175.989 146.551 175.881 146.886 175.665 147.182C175.452 147.477 175.153 147.71 174.77 147.881C174.386 148.051 173.94 148.136 173.432 148.136C172.764 148.136 172.212 147.991 171.774 147.702C171.337 147.412 171.06 146.989 170.943 146.432L171.898 146.193C171.989 146.545 172.161 146.81 172.413 146.986C172.669 147.162 173.003 147.25 173.415 147.25C173.884 147.25 174.256 147.151 174.531 146.952C174.81 146.75 174.949 146.509 174.949 146.227C174.949 146 174.869 145.81 174.71 145.656C174.551 145.5 174.307 145.384 173.977 145.307L172.886 145.051C172.287 144.909 171.847 144.689 171.565 144.391C171.287 144.089 171.148 143.713 171.148 143.261C171.148 142.892 171.251 142.565 171.459 142.281C171.669 141.997 171.955 141.774 172.315 141.612C172.679 141.45 173.091 141.369 173.551 141.369C174.199 141.369 174.707 141.511 175.077 141.795C175.449 142.08 175.713 142.455 175.869 142.92Z" fill="#A9A7B6"/>
<path d="M78.7045 167.364L81.733 176.523H81.8523L84.875 167.364H87.1932L83.0909 179H80.4886L76.392 167.364H78.7045ZM88.6349 179V170.273H90.6918V179H88.6349ZM89.669 169.034C89.3433 169.034 89.063 168.926 88.8281 168.71C88.5933 168.491 88.4759 168.227 88.4759 167.92C88.4759 167.61 88.5933 167.347 88.8281 167.131C89.063 166.911 89.3433 166.801 89.669 166.801C89.9986 166.801 90.2789 166.911 90.5099 167.131C90.7448 167.347 90.8622 167.61 90.8622 167.92C90.8622 168.227 90.7448 168.491 90.5099 168.71C90.2789 168.926 89.9986 169.034 89.669 169.034ZM99.7045 172.58L97.8295 172.784C97.7765 172.595 97.6837 172.417 97.5511 172.25C97.4223 172.083 97.2481 171.949 97.0284 171.847C96.8087 171.744 96.5398 171.693 96.2216 171.693C95.7936 171.693 95.4337 171.786 95.142 171.972C94.8542 172.157 94.7121 172.398 94.7159 172.693C94.7121 172.947 94.8049 173.153 94.9943 173.312C95.1875 173.472 95.5057 173.602 95.9489 173.705L97.4375 174.023C98.2633 174.201 98.8769 174.483 99.2784 174.869C99.6837 175.256 99.8883 175.761 99.892 176.386C99.8883 176.936 99.7273 177.42 99.4091 177.841C99.0947 178.258 98.6572 178.583 98.0966 178.818C97.536 179.053 96.892 179.17 96.1648 179.17C95.0966 179.17 94.2367 178.947 93.5852 178.5C92.9337 178.049 92.5455 177.422 92.4205 176.619L94.4261 176.426C94.517 176.82 94.7102 177.117 95.0057 177.318C95.3011 177.519 95.6856 177.619 96.1591 177.619C96.6477 177.619 97.0398 177.519 97.3352 177.318C97.6345 177.117 97.7841 176.869 97.7841 176.574C97.7841 176.324 97.6875 176.117 97.4943 175.955C97.3049 175.792 97.0095 175.667 96.608 175.58L95.1193 175.267C94.2822 175.093 93.6629 174.799 93.2614 174.386C92.8598 173.97 92.661 173.443 92.6648 172.807C92.661 172.269 92.8068 171.803 93.1023 171.409C93.4015 171.011 93.8163 170.705 94.3466 170.489C94.8807 170.269 95.4962 170.159 96.1932 170.159C97.2159 170.159 98.0208 170.377 98.608 170.812C99.1989 171.248 99.5644 171.837 99.7045 172.58ZM101.588 179V170.273H103.645V179H101.588ZM102.622 169.034C102.296 169.034 102.016 168.926 101.781 168.71C101.546 168.491 101.429 168.227 101.429 167.92C101.429 167.61 101.546 167.347 101.781 167.131C102.016 166.911 102.296 166.801 102.622 166.801C102.952 166.801 103.232 166.911 103.463 167.131C103.698 167.347 103.815 167.61 103.815 167.92C103.815 168.227 103.698 168.491 103.463 168.71C103.232 168.926 102.952 169.034 102.622 169.034ZM110.118 170.273V171.864H105.101V170.273H110.118ZM106.339 168.182H108.396V176.375C108.396 176.652 108.438 176.864 108.521 177.011C108.608 177.155 108.722 177.254 108.862 177.307C109.002 177.36 109.158 177.386 109.328 177.386C109.457 177.386 109.574 177.377 109.68 177.358C109.79 177.339 109.874 177.322 109.93 177.307L110.277 178.915C110.167 178.953 110.01 178.994 109.805 179.04C109.605 179.085 109.358 179.112 109.067 179.119C108.552 179.134 108.088 179.057 107.675 178.886C107.262 178.712 106.934 178.443 106.692 178.08C106.453 177.716 106.336 177.261 106.339 176.716V168.182ZM115.551 179.17C114.699 179.17 113.96 178.983 113.335 178.608C112.71 178.233 112.225 177.708 111.881 177.034C111.54 176.36 111.369 175.572 111.369 174.67C111.369 173.769 111.54 172.979 111.881 172.301C112.225 171.623 112.71 171.097 113.335 170.722C113.96 170.347 114.699 170.159 115.551 170.159C116.403 170.159 117.142 170.347 117.767 170.722C118.392 171.097 118.875 171.623 119.216 172.301C119.561 172.979 119.733 173.769 119.733 174.67C119.733 175.572 119.561 176.36 119.216 177.034C118.875 177.708 118.392 178.233 117.767 178.608C117.142 178.983 116.403 179.17 115.551 179.17ZM115.562 177.523C116.025 177.523 116.411 177.396 116.722 177.142C117.032 176.884 117.263 176.54 117.415 176.108C117.57 175.676 117.648 175.195 117.648 174.665C117.648 174.131 117.57 173.648 117.415 173.216C117.263 172.78 117.032 172.434 116.722 172.176C116.411 171.919 116.025 171.79 115.562 171.79C115.089 171.79 114.695 171.919 114.381 172.176C114.07 172.434 113.837 172.78 113.682 173.216C113.53 173.648 113.455 174.131 113.455 174.665C113.455 175.195 113.53 175.676 113.682 176.108C113.837 176.54 114.07 176.884 114.381 177.142C114.695 177.396 115.089 177.523 115.562 177.523ZM121.479 179V170.273H123.473V171.727H123.564C123.723 171.223 123.996 170.835 124.382 170.562C124.772 170.286 125.217 170.148 125.717 170.148C125.831 170.148 125.958 170.153 126.098 170.165C126.242 170.172 126.361 170.186 126.456 170.205V172.097C126.369 172.066 126.231 172.04 126.041 172.017C125.856 171.991 125.676 171.977 125.501 171.977C125.126 171.977 124.789 172.059 124.49 172.222C124.195 172.381 123.962 172.602 123.791 172.886C123.621 173.17 123.536 173.498 123.536 173.869V179H121.479ZM134.72 172.58L132.845 172.784C132.792 172.595 132.699 172.417 132.567 172.25C132.438 172.083 132.264 171.949 132.044 171.847C131.824 171.744 131.555 171.693 131.237 171.693C130.809 171.693 130.449 171.786 130.158 171.972C129.87 172.157 129.728 172.398 129.732 172.693C129.728 172.947 129.821 173.153 130.01 173.312C130.203 173.472 130.521 173.602 130.964 173.705L132.453 174.023C133.279 174.201 133.893 174.483 134.294 174.869C134.699 175.256 134.904 175.761 134.908 176.386C134.904 176.936 134.743 177.42 134.425 177.841C134.11 178.258 133.673 178.583 133.112 178.818C132.552 179.053 131.908 179.17 131.18 179.17C130.112 179.17 129.252 178.947 128.601 178.5C127.949 178.049 127.561 177.422 127.436 176.619L129.442 176.426C129.533 176.82 129.726 177.117 130.021 177.318C130.317 177.519 130.701 177.619 131.175 177.619C131.663 177.619 132.055 177.519 132.351 177.318C132.65 177.117 132.8 176.869 132.8 176.574C132.8 176.324 132.703 176.117 132.51 175.955C132.321 175.792 132.025 175.667 131.624 175.58L130.135 175.267C129.298 175.093 128.679 174.799 128.277 174.386C127.875 173.97 127.677 173.443 127.68 172.807C127.677 172.269 127.822 171.803 128.118 171.409C128.417 171.011 128.832 170.705 129.362 170.489C129.896 170.269 130.512 170.159 131.209 170.159C132.232 170.159 133.036 170.377 133.624 170.812C134.214 171.248 134.58 171.837 134.72 172.58ZM137.871 179.125C137.526 179.125 137.231 179.004 136.984 178.761C136.738 178.519 136.617 178.223 136.621 177.875C136.617 177.534 136.738 177.242 136.984 177C137.231 176.758 137.526 176.636 137.871 176.636C138.204 176.636 138.494 176.758 138.74 177C138.99 177.242 139.117 177.534 139.121 177.875C139.117 178.106 139.056 178.316 138.939 178.506C138.825 178.695 138.674 178.847 138.484 178.96C138.299 179.07 138.094 179.125 137.871 179.125ZM137.871 172.898C137.526 172.898 137.231 172.777 136.984 172.534C136.738 172.288 136.617 171.992 136.621 171.648C136.617 171.307 136.738 171.015 136.984 170.773C137.231 170.527 137.526 170.403 137.871 170.403C138.204 170.403 138.494 170.527 138.74 170.773C138.99 171.015 139.117 171.307 139.121 171.648C139.117 171.875 139.056 172.083 138.939 172.273C138.825 172.462 138.674 172.614 138.484 172.727C138.299 172.841 138.094 172.898 137.871 172.898ZM149.491 179.222C148.556 179.222 147.753 178.985 147.082 178.511C146.416 178.034 145.902 177.347 145.543 176.449C145.187 175.547 145.009 174.462 145.009 173.193C145.012 171.924 145.192 170.845 145.548 169.955C145.908 169.061 146.421 168.379 147.088 167.909C147.759 167.439 148.56 167.205 149.491 167.205C150.423 167.205 151.224 167.439 151.895 167.909C152.565 168.379 153.079 169.061 153.435 169.955C153.795 170.848 153.974 171.928 153.974 173.193C153.974 174.466 153.795 175.553 153.435 176.455C153.079 177.352 152.565 178.038 151.895 178.511C151.228 178.985 150.427 179.222 149.491 179.222ZM149.491 177.443C150.219 177.443 150.793 177.085 151.213 176.369C151.637 175.65 151.849 174.591 151.849 173.193C151.849 172.269 151.753 171.492 151.56 170.864C151.366 170.235 151.094 169.761 150.741 169.443C150.389 169.121 149.973 168.96 149.491 168.96C148.768 168.96 148.196 169.32 147.776 170.04C147.355 170.756 147.143 171.807 147.139 173.193C147.135 174.121 147.228 174.902 147.418 175.534C147.611 176.167 147.884 176.644 148.236 176.966C148.588 177.284 149.007 177.443 149.491 177.443Z" fill="black"/>
<rect x="76" y="198" width="248" height="2" rx="1" fill="#EEEEEE"/>
<rect x="76" y="198" width="25" height="2" rx="1" fill="#FF0000"/>
<g filter="url(#filter1_d_6052_68)">
<rect x="314" y="376" width="200" height="95" rx="10" fill="white"/>
</g>
<path d="M340.71 406.773V418.409H338.835L333.352 410.483H333.256V418.409H331.148V406.773H333.034L338.511 414.705H338.614V406.773H340.71ZM346.78 418.58C345.905 418.58 345.149 418.398 344.513 418.034C343.88 417.667 343.393 417.148 343.053 416.477C342.712 415.803 342.541 415.009 342.541 414.097C342.541 413.199 342.712 412.411 343.053 411.733C343.397 411.051 343.878 410.521 344.496 410.142C345.113 409.759 345.839 409.568 346.672 409.568C347.21 409.568 347.717 409.655 348.195 409.83C348.676 410 349.1 410.265 349.467 410.625C349.839 410.985 350.13 411.443 350.342 412C350.554 412.553 350.661 413.212 350.661 413.977V414.608H343.507V413.222H348.689C348.685 412.828 348.6 412.477 348.433 412.17C348.267 411.86 348.034 411.615 347.734 411.437C347.439 411.259 347.094 411.17 346.7 411.17C346.28 411.17 345.911 411.273 345.592 411.477C345.274 411.678 345.026 411.943 344.848 412.273C344.674 412.598 344.585 412.956 344.581 413.347V414.557C344.581 415.064 344.674 415.5 344.859 415.864C345.045 416.223 345.304 416.5 345.638 416.693C345.971 416.883 346.361 416.977 346.808 416.977C347.107 416.977 347.378 416.936 347.621 416.852C347.863 416.765 348.073 416.638 348.251 416.472C348.429 416.305 348.564 416.098 348.655 415.852L350.575 416.068C350.454 416.576 350.223 417.019 349.882 417.398C349.545 417.773 349.113 418.064 348.587 418.273C348.06 418.477 347.458 418.58 346.78 418.58ZM356.264 418.58C355.389 418.58 354.634 418.398 353.997 418.034C353.365 417.667 352.878 417.148 352.537 416.477C352.196 415.803 352.026 415.009 352.026 414.097C352.026 413.199 352.196 412.411 352.537 411.733C352.882 411.051 353.363 410.521 353.98 410.142C354.598 409.759 355.323 409.568 356.156 409.568C356.694 409.568 357.202 409.655 357.679 409.83C358.16 410 358.584 410.265 358.952 410.625C359.323 410.985 359.615 411.443 359.827 412C360.039 412.553 360.145 413.212 360.145 413.977V414.608H352.991V413.222H358.173C358.17 412.828 358.084 412.477 357.918 412.17C357.751 411.86 357.518 411.615 357.219 411.437C356.923 411.259 356.579 411.17 356.185 411.17C355.764 411.17 355.395 411.273 355.077 411.477C354.759 411.678 354.51 411.943 354.332 412.273C354.158 412.598 354.069 412.956 354.065 413.347V414.557C354.065 415.064 354.158 415.5 354.344 415.864C354.529 416.223 354.789 416.5 355.122 416.693C355.455 416.883 355.846 416.977 356.293 416.977C356.592 416.977 356.863 416.936 357.105 416.852C357.348 416.765 357.558 416.638 357.736 416.472C357.914 416.305 358.048 416.098 358.139 415.852L360.06 416.068C359.938 416.576 359.707 417.019 359.366 417.398C359.029 417.773 358.598 418.064 358.071 418.273C357.545 418.477 356.942 418.58 356.264 418.58ZM365.124 418.562C364.438 418.562 363.824 418.386 363.283 418.034C362.741 417.682 362.313 417.17 361.999 416.5C361.684 415.83 361.527 415.015 361.527 414.057C361.527 413.087 361.686 412.269 362.004 411.602C362.326 410.932 362.76 410.426 363.305 410.085C363.851 409.74 364.459 409.568 365.129 409.568C365.641 409.568 366.061 409.655 366.391 409.83C366.72 410 366.982 410.206 367.175 410.449C367.368 410.687 367.518 410.913 367.624 411.125H367.709V406.773H369.771V418.409H367.749V417.034H367.624C367.518 417.246 367.364 417.472 367.163 417.71C366.963 417.945 366.697 418.146 366.368 418.312C366.038 418.479 365.624 418.562 365.124 418.562ZM365.697 416.875C366.133 416.875 366.504 416.758 366.811 416.523C367.118 416.284 367.351 415.953 367.51 415.528C367.669 415.104 367.749 414.61 367.749 414.045C367.749 413.481 367.669 412.99 367.51 412.574C367.355 412.157 367.124 411.833 366.817 411.602C366.514 411.371 366.141 411.256 365.697 411.256C365.239 411.256 364.857 411.375 364.55 411.614C364.243 411.852 364.012 412.182 363.857 412.602C363.701 413.023 363.624 413.504 363.624 414.045C363.624 414.591 363.701 415.078 363.857 415.506C364.016 415.93 364.249 416.265 364.555 416.511C364.866 416.754 365.247 416.875 365.697 416.875ZM378.861 411.989L376.986 412.193C376.933 412.004 376.84 411.826 376.707 411.659C376.579 411.492 376.404 411.358 376.185 411.256C375.965 411.153 375.696 411.102 375.378 411.102C374.95 411.102 374.59 411.195 374.298 411.381C374.01 411.566 373.868 411.807 373.872 412.102C373.868 412.356 373.961 412.562 374.151 412.722C374.344 412.881 374.662 413.011 375.105 413.114L376.594 413.432C377.42 413.61 378.033 413.892 378.435 414.278C378.84 414.665 379.045 415.17 379.048 415.795C379.045 416.345 378.884 416.83 378.565 417.25C378.251 417.667 377.813 417.992 377.253 418.227C376.692 418.462 376.048 418.58 375.321 418.58C374.253 418.58 373.393 418.356 372.741 417.909C372.09 417.458 371.702 416.831 371.577 416.028L373.582 415.835C373.673 416.229 373.866 416.526 374.162 416.727C374.457 416.928 374.842 417.028 375.315 417.028C375.804 417.028 376.196 416.928 376.491 416.727C376.791 416.526 376.94 416.278 376.94 415.983C376.94 415.733 376.844 415.526 376.651 415.364C376.461 415.201 376.166 415.076 375.764 414.989L374.276 414.676C373.438 414.502 372.819 414.208 372.418 413.795C372.016 413.379 371.817 412.852 371.821 412.216C371.817 411.678 371.963 411.212 372.259 410.818C372.558 410.42 372.973 410.114 373.503 409.898C374.037 409.678 374.652 409.568 375.349 409.568C376.372 409.568 377.177 409.786 377.764 410.222C378.355 410.657 378.721 411.246 378.861 411.989ZM386.912 406.773V418.409H384.804V406.773H386.912ZM389.104 418.409V409.682H391.07V411.165H391.172C391.354 410.665 391.655 410.275 392.075 409.994C392.496 409.71 392.998 409.568 393.581 409.568C394.172 409.568 394.67 409.712 395.075 410C395.484 410.284 395.772 410.672 395.939 411.165H396.03C396.223 410.68 396.549 410.294 397.007 410.006C397.469 409.714 398.017 409.568 398.649 409.568C399.452 409.568 400.107 409.822 400.615 410.33C401.123 410.837 401.376 411.578 401.376 412.551V418.409H399.314V412.869C399.314 412.328 399.17 411.932 398.882 411.682C398.594 411.428 398.242 411.301 397.825 411.301C397.329 411.301 396.941 411.456 396.661 411.767C396.384 412.074 396.246 412.473 396.246 412.966V418.409H394.229V412.784C394.229 412.333 394.092 411.973 393.82 411.705C393.551 411.436 393.198 411.301 392.763 411.301C392.467 411.301 392.198 411.377 391.956 411.528C391.714 411.676 391.52 411.886 391.376 412.159C391.232 412.428 391.161 412.742 391.161 413.102V418.409H389.104ZM403.463 421.682V409.682H405.486V411.125H405.605C405.711 410.913 405.861 410.687 406.054 410.449C406.247 410.206 406.509 410 406.838 409.83C407.168 409.655 407.588 409.568 408.099 409.568C408.774 409.568 409.382 409.74 409.923 410.085C410.469 410.426 410.901 410.932 411.219 411.602C411.541 412.269 411.702 413.087 411.702 414.057C411.702 415.015 411.545 415.83 411.23 416.5C410.916 417.17 410.488 417.682 409.946 418.034C409.404 418.386 408.791 418.562 408.105 418.562C407.605 418.562 407.19 418.479 406.861 418.312C406.531 418.146 406.266 417.945 406.065 417.71C405.868 417.472 405.715 417.246 405.605 417.034H405.52V421.682H403.463ZM405.48 414.045C405.48 414.61 405.56 415.104 405.719 415.528C405.882 415.953 406.115 416.284 406.418 416.523C406.724 416.758 407.096 416.875 407.531 416.875C407.986 416.875 408.366 416.754 408.673 416.511C408.98 416.265 409.211 415.93 409.366 415.506C409.526 415.078 409.605 414.591 409.605 414.045C409.605 413.504 409.527 413.023 409.372 412.602C409.217 412.182 408.986 411.852 408.679 411.614C408.372 411.375 407.99 411.256 407.531 411.256C407.092 411.256 406.719 411.371 406.412 411.602C406.105 411.833 405.872 412.157 405.713 412.574C405.558 412.99 405.48 413.481 405.48 414.045ZM413.463 418.409V409.682H415.457V411.136H415.548C415.707 410.633 415.98 410.244 416.366 409.972C416.757 409.695 417.202 409.557 417.702 409.557C417.815 409.557 417.942 409.562 418.082 409.574C418.226 409.581 418.346 409.595 418.44 409.614V411.506C418.353 411.475 418.215 411.449 418.026 411.426C417.84 411.4 417.66 411.386 417.486 411.386C417.111 411.386 416.774 411.468 416.474 411.631C416.179 411.79 415.946 412.011 415.776 412.295C415.605 412.58 415.52 412.907 415.52 413.278V418.409H413.463ZM423.254 418.58C422.402 418.58 421.663 418.392 421.038 418.017C420.413 417.642 419.929 417.117 419.584 416.443C419.243 415.769 419.072 414.981 419.072 414.08C419.072 413.178 419.243 412.388 419.584 411.71C419.929 411.032 420.413 410.506 421.038 410.131C421.663 409.756 422.402 409.568 423.254 409.568C424.107 409.568 424.845 409.756 425.47 410.131C426.095 410.506 426.578 411.032 426.919 411.71C427.264 412.388 427.436 413.178 427.436 414.08C427.436 414.981 427.264 415.769 426.919 416.443C426.578 417.117 426.095 417.642 425.47 418.017C424.845 418.392 424.107 418.58 423.254 418.58ZM423.266 416.932C423.728 416.932 424.114 416.805 424.425 416.551C424.735 416.294 424.966 415.949 425.118 415.517C425.273 415.085 425.351 414.604 425.351 414.074C425.351 413.54 425.273 413.057 425.118 412.625C424.966 412.189 424.735 411.843 424.425 411.585C424.114 411.328 423.728 411.199 423.266 411.199C422.792 411.199 422.398 411.328 422.084 411.585C421.773 411.843 421.54 412.189 421.385 412.625C421.233 413.057 421.158 413.54 421.158 414.074C421.158 414.604 421.233 415.085 421.385 415.517C421.54 415.949 421.773 416.294 422.084 416.551C422.398 416.805 422.792 416.932 423.266 416.932ZM436.68 409.682L433.572 418.409H431.3L428.192 409.682H430.385L432.391 416.165H432.482L434.493 409.682H436.68ZM441.67 418.58C440.795 418.58 440.04 418.398 439.403 418.034C438.771 417.667 438.284 417.148 437.943 416.477C437.602 415.803 437.432 415.009 437.432 414.097C437.432 413.199 437.602 412.411 437.943 411.733C438.288 411.051 438.769 410.521 439.386 410.142C440.004 409.759 440.729 409.568 441.562 409.568C442.1 409.568 442.608 409.655 443.085 409.83C443.566 410 443.991 410.265 444.358 410.625C444.729 410.985 445.021 411.443 445.233 412C445.445 412.553 445.551 413.212 445.551 413.977V414.608H438.398V413.222H443.58C443.576 412.828 443.491 412.477 443.324 412.17C443.157 411.86 442.924 411.615 442.625 411.437C442.33 411.259 441.985 411.17 441.591 411.17C441.17 411.17 440.801 411.273 440.483 411.477C440.165 411.678 439.917 411.943 439.739 412.273C439.564 412.598 439.475 412.956 439.472 413.347V414.557C439.472 415.064 439.564 415.5 439.75 415.864C439.936 416.223 440.195 416.5 440.528 416.693C440.862 416.883 441.252 416.977 441.699 416.977C441.998 416.977 442.269 416.936 442.511 416.852C442.754 416.765 442.964 416.638 443.142 416.472C443.32 416.305 443.455 416.098 443.545 415.852L445.466 416.068C445.345 416.576 445.114 417.019 444.773 417.398C444.436 417.773 444.004 418.064 443.477 418.273C442.951 418.477 442.348 418.58 441.67 418.58ZM447.291 418.409V409.682H449.257V411.165H449.359C449.541 410.665 449.842 410.275 450.263 409.994C450.683 409.71 451.185 409.568 451.768 409.568C452.359 409.568 452.857 409.712 453.263 410C453.672 410.284 453.96 410.672 454.126 411.165H454.217C454.411 410.68 454.736 410.294 455.195 410.006C455.657 409.714 456.204 409.568 456.837 409.568C457.64 409.568 458.295 409.822 458.803 410.33C459.31 410.837 459.564 411.578 459.564 412.551V418.409H457.501V412.869C457.501 412.328 457.357 411.932 457.07 411.682C456.782 411.428 456.429 411.301 456.013 411.301C455.517 411.301 455.128 411.456 454.848 411.767C454.571 412.074 454.433 412.473 454.433 412.966V418.409H452.416V412.784C452.416 412.333 452.28 411.973 452.007 411.705C451.738 411.436 451.386 411.301 450.95 411.301C450.655 411.301 450.386 411.377 450.143 411.528C449.901 411.676 449.708 411.886 449.564 412.159C449.42 412.428 449.348 412.742 449.348 413.102V418.409H447.291ZM465.514 418.58C464.639 418.58 463.884 418.398 463.247 418.034C462.615 417.667 462.128 417.148 461.787 416.477C461.446 415.803 461.276 415.009 461.276 414.097C461.276 413.199 461.446 412.411 461.787 411.733C462.132 411.051 462.613 410.521 463.23 410.142C463.848 409.759 464.573 409.568 465.406 409.568C465.944 409.568 466.452 409.655 466.929 409.83C467.41 410 467.834 410.265 468.202 410.625C468.573 410.985 468.865 411.443 469.077 412C469.289 412.553 469.395 413.212 469.395 413.977V414.608H462.241V413.222H467.423C467.42 412.828 467.334 412.477 467.168 412.17C467.001 411.86 466.768 411.615 466.469 411.437C466.173 411.259 465.829 411.17 465.435 411.17C465.014 411.17 464.645 411.273 464.327 411.477C464.009 411.678 463.76 411.943 463.582 412.273C463.408 412.598 463.319 412.956 463.315 413.347V414.557C463.315 415.064 463.408 415.5 463.594 415.864C463.779 416.223 464.039 416.5 464.372 416.693C464.705 416.883 465.096 416.977 465.543 416.977C465.842 416.977 466.113 416.936 466.355 416.852C466.598 416.765 466.808 416.638 466.986 416.472C467.164 416.305 467.298 416.098 467.389 415.852L469.31 416.068C469.188 416.576 468.957 417.019 468.616 417.398C468.279 417.773 467.848 418.064 467.321 418.273C466.795 418.477 466.192 418.58 465.514 418.58ZM473.192 413.295V418.409H471.135V409.682H473.101V411.165H473.203C473.404 410.676 473.724 410.288 474.163 410C474.607 409.712 475.154 409.568 475.805 409.568C476.408 409.568 476.932 409.697 477.379 409.955C477.83 410.212 478.179 410.585 478.425 411.074C478.675 411.562 478.798 412.155 478.794 412.852V418.409H476.737V413.17C476.737 412.587 476.586 412.131 476.283 411.801C475.983 411.472 475.569 411.307 475.038 411.307C474.679 411.307 474.358 411.386 474.078 411.545C473.802 411.701 473.584 411.926 473.425 412.222C473.269 412.517 473.192 412.875 473.192 413.295ZM485.243 409.682V411.273H480.226V409.682H485.243ZM481.464 407.591H483.521V415.784C483.521 416.061 483.563 416.273 483.646 416.42C483.733 416.564 483.847 416.663 483.987 416.716C484.127 416.769 484.283 416.795 484.453 416.795C484.582 416.795 484.699 416.786 484.805 416.767C484.915 416.748 484.999 416.731 485.055 416.716L485.402 418.324C485.292 418.362 485.135 418.403 484.93 418.449C484.73 418.494 484.483 418.521 484.192 418.528C483.677 418.544 483.213 418.466 482.8 418.295C482.387 418.121 482.059 417.852 481.817 417.489C481.578 417.125 481.461 416.67 481.464 416.125V407.591Z" fill="#FF0000"/>
<rect x="330" y="432.909" width="20" height="20" rx="10" fill="#FF0000"/>
<path d="M340.893 437.182L340.727 443.293H339.168L338.997 437.182H340.893ZM339.947 446.02C339.666 446.02 339.425 445.92 339.223 445.722C339.021 445.52 338.922 445.278 338.925 444.997C338.922 444.719 339.021 444.48 339.223 444.281C339.425 444.082 339.666 443.983 339.947 443.983C340.217 443.983 340.455 444.082 340.659 444.281C340.864 444.48 340.967 444.719 340.97 444.997C340.967 445.185 340.918 445.357 340.821 445.513C340.727 445.666 340.604 445.79 340.45 445.883C340.297 445.974 340.129 446.02 339.947 446.02Z" fill="white"/>
<path d="M360.057 438.182H361.318L364.284 445.426H364.386L367.352 438.182H368.614V446.909H367.625V440.278H367.54L364.812 446.909H363.858L361.131 440.278H361.045V446.909H360.057V438.182ZM370.596 446.909V440.364H371.602V446.909H370.596ZM371.108 439.273C370.912 439.273 370.743 439.206 370.6 439.072C370.461 438.939 370.392 438.778 370.392 438.591C370.392 438.403 370.461 438.243 370.6 438.109C370.743 437.976 370.912 437.909 371.108 437.909C371.304 437.909 371.471 437.976 371.61 438.109C371.752 438.243 371.824 438.403 371.824 438.591C371.824 438.778 371.752 438.939 371.61 439.072C371.471 439.206 371.304 439.273 371.108 439.273ZM378.08 441.83L377.177 442.085C377.12 441.935 377.036 441.788 376.925 441.646C376.817 441.501 376.67 441.382 376.482 441.288C376.295 441.195 376.055 441.148 375.762 441.148C375.362 441.148 375.028 441.24 374.761 441.425C374.496 441.607 374.364 441.838 374.364 442.119C374.364 442.369 374.455 442.567 374.637 442.712C374.819 442.857 375.103 442.977 375.489 443.074L376.461 443.312C377.046 443.455 377.482 443.672 377.769 443.964C378.056 444.254 378.2 444.628 378.2 445.085C378.2 445.46 378.092 445.795 377.876 446.091C377.663 446.386 377.364 446.619 376.981 446.79C376.597 446.96 376.151 447.045 375.643 447.045C374.975 447.045 374.423 446.901 373.985 446.611C373.548 446.321 373.271 445.898 373.154 445.341L374.109 445.102C374.2 445.455 374.371 445.719 374.624 445.895C374.88 446.071 375.214 446.159 375.626 446.159C376.094 446.159 376.467 446.06 376.742 445.861C377.021 445.659 377.16 445.418 377.16 445.136C377.16 444.909 377.08 444.719 376.921 444.565C376.762 444.409 376.518 444.293 376.188 444.216L375.097 443.96C374.498 443.818 374.058 443.598 373.776 443.3C373.498 442.999 373.359 442.622 373.359 442.17C373.359 441.801 373.462 441.474 373.67 441.19C373.88 440.906 374.165 440.683 374.526 440.521C374.89 440.359 375.302 440.278 375.762 440.278C376.41 440.278 376.918 440.42 377.288 440.705C377.66 440.989 377.924 441.364 378.08 441.83ZM384.35 441.83L383.446 442.085C383.39 441.935 383.306 441.788 383.195 441.646C383.087 441.501 382.939 441.382 382.752 441.288C382.564 441.195 382.324 441.148 382.032 441.148C381.631 441.148 381.297 441.24 381.03 441.425C380.766 441.607 380.634 441.838 380.634 442.119C380.634 442.369 380.725 442.567 380.907 442.712C381.088 442.857 381.373 442.977 381.759 443.074L382.73 443.312C383.316 443.455 383.752 443.672 384.039 443.964C384.326 444.254 384.469 444.628 384.469 445.085C384.469 445.46 384.361 445.795 384.145 446.091C383.932 446.386 383.634 446.619 383.25 446.79C382.867 446.96 382.421 447.045 381.912 447.045C381.245 447.045 380.692 446.901 380.255 446.611C379.817 446.321 379.54 445.898 379.424 445.341L380.378 445.102C380.469 445.455 380.641 445.719 380.894 445.895C381.15 446.071 381.483 446.159 381.895 446.159C382.364 446.159 382.736 446.06 383.012 445.861C383.29 445.659 383.429 445.418 383.429 445.136C383.429 444.909 383.35 444.719 383.191 444.565C383.032 444.409 382.787 444.293 382.458 444.216L381.367 443.96C380.767 443.818 380.327 443.598 380.046 443.3C379.767 442.999 379.628 442.622 379.628 442.17C379.628 441.801 379.732 441.474 379.939 441.19C380.15 440.906 380.435 440.683 380.796 440.521C381.159 440.359 381.571 440.278 382.032 440.278C382.679 440.278 383.188 440.42 383.557 440.705C383.929 440.989 384.194 441.364 384.35 441.83ZM385.983 446.909V440.364H386.989V446.909H385.983ZM386.494 439.273C386.298 439.273 386.129 439.206 385.987 439.072C385.848 438.939 385.778 438.778 385.778 438.591C385.778 438.403 385.848 438.243 385.987 438.109C386.129 437.976 386.298 437.909 386.494 437.909C386.69 437.909 386.858 437.976 386.997 438.109C387.139 438.243 387.21 438.403 387.21 438.591C387.21 438.778 387.139 438.939 386.997 439.072C386.858 439.206 386.69 439.273 386.494 439.273ZM389.836 442.972V446.909H388.831V440.364H389.802V441.386H389.887C390.041 441.054 390.274 440.787 390.586 440.585C390.899 440.381 391.302 440.278 391.797 440.278C392.24 440.278 392.627 440.369 392.96 440.551C393.292 440.73 393.551 441.003 393.735 441.369C393.92 441.733 394.012 442.193 394.012 442.75V446.909H393.007V442.818C393.007 442.304 392.873 441.903 392.606 441.616C392.339 441.327 391.973 441.182 391.507 441.182C391.186 441.182 390.899 441.251 390.646 441.391C390.396 441.53 390.199 441.733 390.054 442C389.909 442.267 389.836 442.591 389.836 442.972ZM398.492 449.5C398.006 449.5 397.589 449.437 397.239 449.312C396.89 449.19 396.599 449.028 396.366 448.827C396.136 448.628 395.952 448.415 395.816 448.187L396.617 447.625C396.708 447.744 396.823 447.881 396.962 448.034C397.102 448.19 397.292 448.325 397.533 448.439C397.778 448.555 398.097 448.614 398.492 448.614C399.021 448.614 399.457 448.486 399.8 448.23C400.144 447.974 400.316 447.574 400.316 447.028V445.699H400.231C400.157 445.818 400.052 445.966 399.915 446.142C399.782 446.315 399.589 446.47 399.336 446.607C399.086 446.74 398.748 446.807 398.322 446.807C397.793 446.807 397.319 446.682 396.898 446.432C396.481 446.182 396.15 445.818 395.906 445.341C395.664 444.864 395.543 444.284 395.543 443.602C395.543 442.932 395.661 442.348 395.897 441.851C396.133 441.351 396.461 440.964 396.881 440.692C397.302 440.416 397.788 440.278 398.339 440.278C398.765 440.278 399.103 440.349 399.353 440.491C399.606 440.631 399.799 440.79 399.933 440.969C400.069 441.145 400.174 441.29 400.248 441.403H400.35V440.364H401.322V447.097C401.322 447.659 401.194 448.116 400.938 448.469C400.685 448.824 400.344 449.084 399.915 449.249C399.489 449.416 399.015 449.5 398.492 449.5ZM398.458 445.903C398.862 445.903 399.202 445.811 399.481 445.626C399.759 445.442 399.971 445.176 400.116 444.83C400.261 444.483 400.333 444.068 400.333 443.585C400.333 443.114 400.262 442.697 400.12 442.337C399.978 441.976 399.768 441.693 399.489 441.489C399.211 441.284 398.867 441.182 398.458 441.182C398.032 441.182 397.677 441.29 397.393 441.506C397.112 441.722 396.9 442.011 396.758 442.375C396.619 442.739 396.549 443.142 396.549 443.585C396.549 444.04 396.62 444.442 396.762 444.791C396.907 445.138 397.12 445.41 397.401 445.609C397.685 445.805 398.038 445.903 398.458 445.903ZM409.452 440.364V441.216H405.924V440.364H409.452ZM406.981 446.909V439.46C406.981 439.085 407.069 438.773 407.245 438.523C407.421 438.273 407.65 438.085 407.931 437.96C408.212 437.835 408.509 437.773 408.822 437.773C409.069 437.773 409.271 437.793 409.427 437.832C409.583 437.872 409.7 437.909 409.776 437.943L409.487 438.812C409.435 438.795 409.364 438.774 409.273 438.749C409.185 438.723 409.069 438.71 408.924 438.71C408.592 438.71 408.352 438.794 408.204 438.962C408.059 439.129 407.987 439.375 407.987 439.699V446.909H406.981ZM413.337 447.045C412.706 447.045 412.162 446.906 411.705 446.628C411.25 446.347 410.899 445.955 410.652 445.452C410.408 444.946 410.286 444.358 410.286 443.687C410.286 443.017 410.408 442.426 410.652 441.915C410.899 441.401 411.243 441 411.683 440.713C412.126 440.423 412.643 440.278 413.234 440.278C413.575 440.278 413.912 440.335 414.244 440.449C414.577 440.562 414.879 440.747 415.152 441.003C415.425 441.256 415.642 441.591 415.804 442.008C415.966 442.426 416.047 442.94 416.047 443.551V443.977H411.001V443.108H415.024C415.024 442.739 414.95 442.409 414.803 442.119C414.658 441.83 414.45 441.601 414.18 441.433C413.913 441.266 413.598 441.182 413.234 441.182C412.834 441.182 412.487 441.281 412.195 441.48C411.905 441.676 411.682 441.932 411.526 442.247C411.369 442.562 411.291 442.901 411.291 443.261V443.841C411.291 444.335 411.376 444.754 411.547 445.098C411.72 445.439 411.96 445.699 412.267 445.878C412.574 446.054 412.93 446.142 413.337 446.142C413.601 446.142 413.839 446.105 414.053 446.031C414.268 445.955 414.455 445.841 414.611 445.69C414.767 445.537 414.888 445.347 414.973 445.119L415.945 445.392C415.842 445.722 415.67 446.011 415.429 446.261C415.188 446.508 414.889 446.702 414.534 446.841C414.179 446.977 413.78 447.045 413.337 447.045ZM419.503 447.062C419.088 447.062 418.712 446.984 418.374 446.828C418.036 446.669 417.767 446.44 417.568 446.142C417.369 445.841 417.27 445.477 417.27 445.051C417.27 444.676 417.344 444.372 417.491 444.139C417.639 443.903 417.837 443.719 418.084 443.585C418.331 443.452 418.604 443.352 418.902 443.287C419.203 443.219 419.506 443.165 419.81 443.125C420.207 443.074 420.53 443.035 420.777 443.01C421.027 442.982 421.209 442.935 421.322 442.869C421.439 442.804 421.497 442.69 421.497 442.528V442.494C421.497 442.074 421.382 441.747 421.152 441.514C420.925 441.281 420.58 441.165 420.116 441.165C419.636 441.165 419.26 441.27 418.987 441.48C418.714 441.69 418.523 441.915 418.412 442.153L417.457 441.812C417.628 441.415 417.855 441.105 418.139 440.883C418.426 440.659 418.739 440.503 419.077 440.415C419.418 440.324 419.753 440.278 420.082 440.278C420.293 440.278 420.534 440.304 420.807 440.355C421.082 440.403 421.348 440.504 421.604 440.658C421.862 440.811 422.077 441.043 422.247 441.352C422.418 441.662 422.503 442.077 422.503 442.597V446.909H421.497V446.023H421.446C421.378 446.165 421.264 446.317 421.105 446.479C420.946 446.641 420.734 446.778 420.47 446.892C420.206 447.006 419.884 447.062 419.503 447.062ZM419.656 446.159C420.054 446.159 420.389 446.081 420.662 445.925C420.938 445.768 421.145 445.567 421.284 445.32C421.426 445.072 421.497 444.812 421.497 444.54V443.619C421.455 443.67 421.361 443.717 421.216 443.76C421.074 443.8 420.909 443.835 420.722 443.866C420.537 443.895 420.357 443.92 420.18 443.943C420.007 443.963 419.866 443.98 419.759 443.994C419.497 444.028 419.253 444.084 419.026 444.16C418.801 444.234 418.619 444.347 418.48 444.497C418.344 444.645 418.276 444.847 418.276 445.102C418.276 445.452 418.405 445.716 418.663 445.895C418.925 446.071 419.256 446.159 419.656 446.159ZM427.185 440.364V441.216H423.793V440.364H427.185ZM424.782 438.795H425.787V445.034C425.787 445.318 425.828 445.531 425.911 445.673C425.996 445.812 426.104 445.906 426.235 445.955C426.368 446 426.509 446.023 426.657 446.023C426.767 446.023 426.858 446.017 426.929 446.006C427 445.991 427.057 445.98 427.1 445.972L427.304 446.875C427.236 446.901 427.141 446.926 427.019 446.952C426.897 446.98 426.742 446.994 426.554 446.994C426.27 446.994 425.992 446.933 425.719 446.811C425.449 446.689 425.225 446.503 425.046 446.253C424.87 446.003 424.782 445.687 424.782 445.307V438.795ZM432.823 444.233V440.364H433.828V446.909H432.823V445.801H432.755C432.601 446.133 432.363 446.416 432.039 446.649C431.715 446.879 431.306 446.994 430.811 446.994C430.402 446.994 430.039 446.905 429.721 446.726C429.402 446.544 429.152 446.271 428.971 445.908C428.789 445.541 428.698 445.08 428.698 444.523V440.364H429.703V444.455C429.703 444.932 429.837 445.312 430.104 445.597C430.374 445.881 430.718 446.023 431.135 446.023C431.385 446.023 431.64 445.959 431.898 445.831C432.159 445.703 432.378 445.507 432.554 445.243C432.733 444.979 432.823 444.642 432.823 444.233ZM435.67 446.909V440.364H436.642V441.352H436.71C436.83 441.028 437.045 440.766 437.358 440.564C437.67 440.362 438.023 440.261 438.415 440.261C438.489 440.261 438.581 440.263 438.692 440.266C438.803 440.268 438.886 440.273 438.943 440.278V441.301C438.909 441.293 438.831 441.28 438.709 441.263C438.589 441.243 438.463 441.233 438.33 441.233C438.011 441.233 437.727 441.3 437.477 441.433C437.23 441.564 437.034 441.746 436.889 441.979C436.747 442.209 436.676 442.472 436.676 442.767V446.909H435.67ZM442.68 447.045C442.05 447.045 441.506 446.906 441.048 446.628C440.594 446.347 440.243 445.955 439.996 445.452C439.751 444.946 439.629 444.358 439.629 443.687C439.629 443.017 439.751 442.426 439.996 441.915C440.243 441.401 440.587 441 441.027 440.713C441.47 440.423 441.987 440.278 442.578 440.278C442.919 440.278 443.256 440.335 443.588 440.449C443.92 440.562 444.223 440.747 444.496 441.003C444.768 441.256 444.986 441.591 445.148 442.008C445.31 442.426 445.391 442.94 445.391 443.551V443.977H440.345V443.108H444.368C444.368 442.739 444.294 442.409 444.146 442.119C444.001 441.83 443.794 441.601 443.524 441.433C443.257 441.266 442.942 441.182 442.578 441.182C442.178 441.182 441.831 441.281 441.538 441.48C441.249 441.676 441.026 441.932 440.869 442.247C440.713 442.562 440.635 442.901 440.635 443.261V443.841C440.635 444.335 440.72 444.754 440.891 445.098C441.064 445.439 441.304 445.699 441.611 445.878C441.918 446.054 442.274 446.142 442.68 446.142C442.945 446.142 443.183 446.105 443.396 446.031C443.612 445.955 443.798 445.841 443.955 445.69C444.111 445.537 444.232 445.347 444.317 445.119L445.288 445.392C445.186 445.722 445.014 446.011 444.773 446.261C444.531 446.508 444.233 446.702 443.878 446.841C443.523 446.977 443.124 447.045 442.68 447.045ZM451.557 441.83L450.653 442.085C450.597 441.935 450.513 441.788 450.402 441.646C450.294 441.501 450.146 441.382 449.959 441.288C449.771 441.195 449.531 441.148 449.239 441.148C448.838 441.148 448.504 441.24 448.237 441.425C447.973 441.607 447.841 441.838 447.841 442.119C447.841 442.369 447.932 442.567 448.114 442.712C448.295 442.857 448.58 442.977 448.966 443.074L449.938 443.312C450.523 443.455 450.959 443.672 451.246 443.964C451.533 444.254 451.676 444.628 451.676 445.085C451.676 445.46 451.568 445.795 451.352 446.091C451.139 446.386 450.841 446.619 450.457 446.79C450.074 446.96 449.628 447.045 449.119 447.045C448.452 447.045 447.899 446.901 447.462 446.611C447.024 446.321 446.747 445.898 446.631 445.341L447.585 445.102C447.676 445.455 447.848 445.719 448.101 445.895C448.357 446.071 448.69 446.159 449.102 446.159C449.571 446.159 449.943 446.06 450.219 445.861C450.497 445.659 450.636 445.418 450.636 445.136C450.636 444.909 450.557 444.719 450.398 444.565C450.239 444.409 449.994 444.293 449.665 444.216L448.574 443.96C447.974 443.818 447.534 443.598 447.253 443.3C446.974 442.999 446.835 442.622 446.835 442.17C446.835 441.801 446.939 441.474 447.146 441.19C447.357 440.906 447.642 440.683 448.003 440.521C448.366 440.359 448.778 440.278 449.239 440.278C449.886 440.278 450.395 440.42 450.764 440.705C451.136 440.989 451.401 441.364 451.557 441.83Z" fill="#A9A7B6"/>
<g filter="url(#filter2_d_6052_68)">
<rect x="212" y="189" width="205" height="162" rx="10" fill="#161C28"/>
</g>
<path d="M245.881 229.727H246.932L249.403 235.764H249.489L251.96 229.727H253.011V237H252.188V231.474H252.116L249.844 237H249.048L246.776 231.474H246.705V237H245.881V229.727ZM256.879 237.114C256.387 237.114 255.955 236.996 255.583 236.762C255.214 236.528 254.925 236.2 254.717 235.778C254.511 235.357 254.408 234.865 254.408 234.301C254.408 233.733 254.511 233.237 254.717 232.813C254.925 232.389 255.214 232.06 255.583 231.826C255.955 231.592 256.387 231.474 256.879 231.474C257.372 231.474 257.803 231.592 258.172 231.826C258.544 232.06 258.833 232.389 259.039 232.813C259.247 233.237 259.351 233.733 259.351 234.301C259.351 234.865 259.247 235.357 259.039 235.778C258.833 236.2 258.544 236.528 258.172 236.762C257.803 236.996 257.372 237.114 256.879 237.114ZM256.879 236.361C257.253 236.361 257.561 236.265 257.803 236.073C258.044 235.881 258.223 235.629 258.339 235.317C258.455 235.004 258.513 234.666 258.513 234.301C258.513 233.937 258.455 233.597 258.339 233.282C258.223 232.967 258.044 232.713 257.803 232.518C257.561 232.324 257.253 232.227 256.879 232.227C256.505 232.227 256.198 232.324 255.956 232.518C255.715 232.713 255.536 232.967 255.42 233.282C255.304 233.597 255.246 233.937 255.246 234.301C255.246 234.666 255.304 235.004 255.42 235.317C255.536 235.629 255.715 235.881 255.956 236.073C256.198 236.265 256.505 236.361 256.879 236.361ZM260.744 237V229.727H261.582V232.412H261.653C261.715 232.317 261.8 232.196 261.909 232.05C262.02 231.901 262.179 231.768 262.385 231.652C262.593 231.534 262.875 231.474 263.23 231.474C263.689 231.474 264.094 231.589 264.444 231.819C264.795 232.049 265.068 232.374 265.265 232.795C265.461 233.217 265.559 233.714 265.559 234.287C265.559 234.865 265.461 235.365 265.265 235.789C265.068 236.21 264.796 236.537 264.448 236.769C264.1 236.999 263.699 237.114 263.244 237.114C262.894 237.114 262.613 237.056 262.402 236.94C262.192 236.821 262.029 236.687 261.916 236.538C261.802 236.387 261.715 236.261 261.653 236.162H261.554V237H260.744ZM261.568 234.273C261.568 234.685 261.628 235.048 261.749 235.363C261.87 235.675 262.046 235.92 262.278 236.098C262.51 236.273 262.794 236.361 263.13 236.361C263.481 236.361 263.773 236.268 264.007 236.084C264.244 235.897 264.422 235.646 264.54 235.331C264.661 235.014 264.721 234.661 264.721 234.273C264.721 233.889 264.662 233.544 264.544 233.236C264.428 232.926 264.251 232.681 264.015 232.501C263.78 232.318 263.485 232.227 263.13 232.227C262.789 232.227 262.503 232.314 262.271 232.487C262.039 232.657 261.864 232.896 261.745 233.204C261.627 233.509 261.568 233.866 261.568 234.273ZM266.841 237V231.545H267.679V237H266.841ZM267.267 230.636C267.104 230.636 266.963 230.581 266.845 230.469C266.729 230.358 266.671 230.224 266.671 230.068C266.671 229.912 266.729 229.778 266.845 229.667C266.963 229.556 267.104 229.5 267.267 229.5C267.431 229.5 267.57 229.556 267.686 229.667C267.805 229.778 267.864 229.912 267.864 230.068C267.864 230.224 267.805 230.358 267.686 230.469C267.57 230.581 267.431 230.636 267.267 230.636ZM270.052 229.727V237H269.214V229.727H270.052ZM273.874 237.114C273.349 237.114 272.895 236.998 272.514 236.766C272.135 236.531 271.843 236.205 271.637 235.786C271.433 235.364 271.332 234.874 271.332 234.315C271.332 233.757 271.433 233.264 271.637 232.838C271.843 232.41 272.129 232.076 272.496 231.837C272.866 231.595 273.297 231.474 273.789 231.474C274.073 231.474 274.354 231.522 274.631 231.616C274.908 231.711 275.16 231.865 275.387 232.078C275.614 232.289 275.795 232.568 275.93 232.916C276.065 233.264 276.133 233.693 276.133 234.202V234.557H271.928V233.832H275.281C275.281 233.525 275.219 233.25 275.096 233.009C274.975 232.767 274.802 232.576 274.577 232.437C274.355 232.297 274.092 232.227 273.789 232.227C273.455 232.227 273.166 232.31 272.923 232.476C272.681 232.639 272.495 232.852 272.365 233.115C272.235 233.378 272.17 233.66 272.17 233.96V234.443C272.17 234.855 272.241 235.204 272.383 235.491C272.527 235.775 272.727 235.991 272.983 236.141C273.239 236.287 273.536 236.361 273.874 236.361C274.094 236.361 274.293 236.33 274.471 236.268C274.651 236.205 274.806 236.11 274.936 235.984C275.066 235.857 275.167 235.698 275.238 235.509L276.048 235.736C275.962 236.01 275.819 236.252 275.618 236.46C275.417 236.666 275.168 236.827 274.872 236.943C274.576 237.057 274.244 237.114 273.874 237.114ZM286.47 233.364C286.47 234.131 286.332 234.794 286.055 235.352C285.778 235.911 285.398 236.342 284.915 236.645C284.432 236.948 283.88 237.099 283.26 237.099C282.64 237.099 282.088 236.948 281.605 236.645C281.122 236.342 280.742 235.911 280.465 235.352C280.188 234.794 280.05 234.131 280.05 233.364C280.05 232.597 280.188 231.934 280.465 231.375C280.742 230.816 281.122 230.385 281.605 230.082C282.088 229.779 282.64 229.628 283.26 229.628C283.88 229.628 284.432 229.779 284.915 230.082C285.398 230.385 285.778 230.816 286.055 231.375C286.332 231.934 286.47 232.597 286.47 233.364ZM285.618 233.364C285.618 232.734 285.513 232.202 285.302 231.769C285.094 231.336 284.811 231.008 284.453 230.786C284.098 230.563 283.7 230.452 283.26 230.452C282.82 230.452 282.421 230.563 282.063 230.786C281.708 231.008 281.425 231.336 281.214 231.769C281.006 232.202 280.902 232.734 280.902 233.364C280.902 233.993 281.006 234.525 281.214 234.958C281.425 235.391 281.708 235.719 282.063 235.942C282.421 236.164 282.82 236.276 283.26 236.276C283.7 236.276 284.098 236.164 284.453 235.942C284.811 235.719 285.094 235.391 285.302 234.958C285.513 234.525 285.618 233.993 285.618 233.364ZM287.837 239.045V231.545H288.647V232.412H288.746C288.808 232.317 288.893 232.196 289.002 232.05C289.113 231.901 289.272 231.768 289.478 231.652C289.686 231.534 289.968 231.474 290.323 231.474C290.782 231.474 291.187 231.589 291.538 231.819C291.888 232.049 292.161 232.374 292.358 232.795C292.554 233.217 292.653 233.714 292.653 234.287C292.653 234.865 292.554 235.365 292.358 235.789C292.161 236.21 291.889 236.537 291.541 236.769C291.193 236.999 290.792 237.114 290.337 237.114C289.987 237.114 289.706 237.056 289.496 236.94C289.285 236.821 289.123 236.687 289.009 236.538C288.896 236.387 288.808 236.261 288.746 236.162H288.675V239.045H287.837ZM288.661 234.273C288.661 234.685 288.722 235.048 288.842 235.363C288.963 235.675 289.139 235.92 289.371 236.098C289.603 236.273 289.888 236.361 290.224 236.361C290.574 236.361 290.866 236.268 291.101 236.084C291.338 235.897 291.515 235.646 291.634 235.331C291.754 235.014 291.815 234.661 291.815 234.273C291.815 233.889 291.755 233.544 291.637 233.236C291.521 232.926 291.345 232.681 291.108 232.501C290.874 232.318 290.579 232.227 290.224 232.227C289.883 232.227 289.596 232.314 289.364 232.487C289.132 232.657 288.957 232.896 288.839 233.204C288.72 233.509 288.661 233.866 288.661 234.273ZM296.303 231.545V232.256H293.477V231.545H296.303ZM294.3 230.239H295.138V235.438C295.138 235.674 295.173 235.852 295.241 235.97C295.313 236.086 295.402 236.164 295.511 236.205C295.623 236.242 295.74 236.261 295.863 236.261C295.955 236.261 296.031 236.257 296.09 236.247C296.149 236.235 296.197 236.226 296.232 236.219L296.403 236.972C296.346 236.993 296.267 237.014 296.165 237.036C296.063 237.059 295.934 237.071 295.778 237.071C295.541 237.071 295.309 237.02 295.082 236.918C294.857 236.817 294.67 236.661 294.521 236.453C294.374 236.245 294.3 235.982 294.3 235.665V230.239ZM297.564 237V231.545H298.402V237H297.564ZM297.99 230.636C297.827 230.636 297.686 230.581 297.567 230.469C297.451 230.358 297.393 230.224 297.393 230.068C297.393 229.912 297.451 229.778 297.567 229.667C297.686 229.556 297.827 229.5 297.99 229.5C298.153 229.5 298.293 229.556 298.409 229.667C298.527 229.778 298.587 229.912 298.587 230.068C298.587 230.224 298.527 230.358 298.409 230.469C298.293 230.581 298.153 230.636 297.99 230.636ZM299.937 237V231.545H300.747V232.398H300.818C300.931 232.107 301.115 231.88 301.368 231.719C301.621 231.556 301.926 231.474 302.281 231.474C302.641 231.474 302.94 231.556 303.179 231.719C303.421 231.88 303.609 232.107 303.744 232.398H303.801C303.94 232.116 304.15 231.892 304.429 231.727C304.709 231.558 305.044 231.474 305.434 231.474C305.922 231.474 306.321 231.627 306.631 231.933C306.941 232.236 307.096 232.708 307.096 233.349V237H306.258V233.349C306.258 232.947 306.148 232.659 305.928 232.487C305.708 232.314 305.448 232.227 305.15 232.227C304.767 232.227 304.469 232.343 304.259 232.575C304.048 232.805 303.943 233.096 303.943 233.449V237H303.09V233.264C303.09 232.954 302.99 232.704 302.789 232.515C302.587 232.323 302.328 232.227 302.011 232.227C301.793 232.227 301.589 232.285 301.4 232.401C301.213 232.517 301.061 232.678 300.945 232.884C300.832 233.088 300.775 233.323 300.775 233.591V237H299.937ZM308.628 237V231.545H309.466V237H308.628ZM309.055 230.636C308.891 230.636 308.75 230.581 308.632 230.469C308.516 230.358 308.458 230.224 308.458 230.068C308.458 229.912 308.516 229.778 308.632 229.667C308.75 229.556 308.891 229.5 309.055 229.5C309.218 229.5 309.358 229.556 309.474 229.667C309.592 229.778 309.651 229.912 309.651 230.068C309.651 230.224 309.592 230.358 309.474 230.469C309.358 230.581 309.218 230.636 309.055 230.636ZM310.845 237V236.361L313.942 232.384V232.327H310.945V231.545H315.021V232.213L312.01 236.162V236.219H315.121V237H310.845ZM318.017 237.128C317.671 237.128 317.357 237.063 317.076 236.933C316.794 236.8 316.57 236.609 316.404 236.361C316.239 236.11 316.156 235.807 316.156 235.452C316.156 235.139 316.217 234.886 316.341 234.692C316.464 234.495 316.628 234.341 316.834 234.23C317.04 234.119 317.267 234.036 317.516 233.982C317.767 233.925 318.019 233.88 318.272 233.847C318.604 233.804 318.873 233.772 319.078 233.751C319.287 233.727 319.438 233.688 319.533 233.634C319.63 233.579 319.679 233.484 319.679 233.349V233.321C319.679 232.971 319.583 232.698 319.391 232.504C319.202 232.31 318.914 232.213 318.528 232.213C318.128 232.213 317.814 232.301 317.587 232.476C317.36 232.651 317.2 232.838 317.108 233.037L316.312 232.753C316.454 232.421 316.644 232.163 316.88 231.979C317.119 231.792 317.38 231.661 317.662 231.588C317.946 231.512 318.225 231.474 318.5 231.474C318.675 231.474 318.876 231.496 319.103 231.538C319.333 231.579 319.554 231.663 319.767 231.79C319.983 231.918 320.162 232.111 320.304 232.369C320.446 232.627 320.517 232.973 320.517 233.406V237H319.679V236.261H319.636C319.579 236.38 319.484 236.506 319.352 236.641C319.219 236.776 319.043 236.891 318.823 236.986C318.603 237.08 318.334 237.128 318.017 237.128ZM318.145 236.375C318.476 236.375 318.755 236.31 318.983 236.18C319.212 236.049 319.385 235.881 319.501 235.675C319.619 235.469 319.679 235.253 319.679 235.026V234.259C319.643 234.301 319.565 234.34 319.444 234.376C319.326 234.409 319.189 234.438 319.032 234.464C318.878 234.488 318.728 234.509 318.581 234.528C318.437 234.545 318.32 234.559 318.23 234.571C318.012 234.599 317.808 234.646 317.619 234.71C317.432 234.771 317.28 234.865 317.164 234.99C317.051 235.113 316.994 235.281 316.994 235.494C316.994 235.786 317.102 236.006 317.317 236.155C317.535 236.302 317.811 236.375 318.145 236.375ZM324.419 231.545V232.256H321.592V231.545H324.419ZM322.416 230.239H323.254V235.438C323.254 235.674 323.288 235.852 323.357 235.97C323.428 236.086 323.518 236.164 323.627 236.205C323.738 236.242 323.855 236.261 323.978 236.261C324.07 236.261 324.146 236.257 324.205 236.247C324.265 236.235 324.312 236.226 324.347 236.219L324.518 236.972C324.461 236.993 324.382 237.014 324.28 237.036C324.178 237.059 324.049 237.071 323.893 237.071C323.656 237.071 323.424 237.02 323.197 236.918C322.972 236.817 322.785 236.661 322.636 236.453C322.489 236.245 322.416 235.982 322.416 235.665V230.239ZM325.679 237V231.545H326.517V237H325.679ZM326.105 230.636C325.942 230.636 325.801 230.581 325.683 230.469C325.567 230.358 325.509 230.224 325.509 230.068C325.509 229.912 325.567 229.778 325.683 229.667C325.801 229.556 325.942 229.5 326.105 229.5C326.269 229.5 326.408 229.556 326.524 229.667C326.643 229.778 326.702 229.912 326.702 230.068C326.702 230.224 326.643 230.358 326.524 230.469C326.408 230.581 326.269 230.636 326.105 230.636ZM330.268 237.114C329.776 237.114 329.344 236.996 328.972 236.762C328.603 236.528 328.314 236.2 328.105 235.778C327.9 235.357 327.797 234.865 327.797 234.301C327.797 233.733 327.9 233.237 328.105 232.813C328.314 232.389 328.603 232.06 328.972 231.826C329.344 231.592 329.776 231.474 330.268 231.474C330.761 231.474 331.191 231.592 331.561 231.826C331.932 232.06 332.221 232.389 332.427 232.813C332.636 233.237 332.74 233.733 332.74 234.301C332.74 234.865 332.636 235.357 332.427 235.778C332.221 236.2 331.932 236.528 331.561 236.762C331.191 236.996 330.761 237.114 330.268 237.114ZM330.268 236.361C330.642 236.361 330.95 236.265 331.191 236.073C331.433 235.881 331.612 235.629 331.728 235.317C331.844 235.004 331.902 234.666 331.902 234.301C331.902 233.937 331.844 233.597 331.728 233.282C331.612 232.967 331.433 232.713 331.191 232.518C330.95 232.324 330.642 232.227 330.268 232.227C329.894 232.227 329.586 232.324 329.345 232.518C329.103 232.713 328.925 232.967 328.809 233.282C328.693 233.597 328.635 233.937 328.635 234.301C328.635 234.666 328.693 235.004 328.809 235.317C328.925 235.629 329.103 235.881 329.345 236.073C329.586 236.265 329.894 236.361 330.268 236.361ZM334.857 233.719V237H334.019V231.545H334.829V232.398H334.9C335.028 232.121 335.222 231.898 335.482 231.73C335.742 231.56 336.079 231.474 336.491 231.474C336.86 231.474 337.183 231.55 337.46 231.702C337.737 231.851 337.952 232.078 338.106 232.384C338.26 232.687 338.337 233.07 338.337 233.534V237H337.499V233.591C337.499 233.162 337.388 232.829 337.165 232.589C336.943 232.348 336.637 232.227 336.249 232.227C335.982 232.227 335.742 232.285 335.532 232.401C335.323 232.517 335.159 232.687 335.038 232.909C334.917 233.132 334.857 233.402 334.857 233.719Z" fill="#E6E6E6"/>
<path d="M247.125 271H244.881V263.727H247.224C247.93 263.727 248.534 263.873 249.036 264.164C249.537 264.453 249.922 264.868 250.19 265.411C250.457 265.95 250.591 266.597 250.591 267.349C250.591 268.107 250.456 268.759 250.186 269.306C249.916 269.851 249.523 270.27 249.007 270.563C248.491 270.854 247.864 271 247.125 271ZM245.761 270.219H247.068C247.67 270.219 248.168 270.103 248.563 269.871C248.959 269.639 249.253 269.308 249.447 268.88C249.642 268.451 249.739 267.941 249.739 267.349C249.739 266.762 249.643 266.257 249.451 265.833C249.259 265.407 248.973 265.08 248.592 264.853C248.21 264.623 247.736 264.509 247.168 264.509H245.761V270.219ZM253.56 271.128C253.214 271.128 252.9 271.063 252.619 270.933C252.337 270.8 252.113 270.609 251.947 270.361C251.782 270.11 251.699 269.807 251.699 269.452C251.699 269.139 251.76 268.886 251.884 268.692C252.007 268.495 252.171 268.341 252.377 268.23C252.583 268.119 252.81 268.036 253.059 267.982C253.31 267.925 253.562 267.88 253.815 267.847C254.147 267.804 254.415 267.772 254.621 267.751C254.83 267.727 254.981 267.688 255.076 267.634C255.173 267.579 255.222 267.484 255.222 267.349V267.321C255.222 266.971 255.126 266.698 254.934 266.504C254.745 266.31 254.457 266.213 254.071 266.213C253.671 266.213 253.357 266.301 253.13 266.476C252.903 266.651 252.743 266.838 252.651 267.037L251.855 266.753C251.997 266.421 252.187 266.163 252.423 265.979C252.662 265.792 252.923 265.661 253.205 265.588C253.489 265.512 253.768 265.474 254.043 265.474C254.218 265.474 254.419 265.496 254.646 265.538C254.876 265.579 255.097 265.663 255.31 265.79C255.526 265.918 255.705 266.111 255.847 266.369C255.989 266.627 256.06 266.973 256.06 267.406V271H255.222V270.261H255.179C255.122 270.38 255.027 270.506 254.895 270.641C254.762 270.776 254.586 270.891 254.366 270.986C254.146 271.08 253.877 271.128 253.56 271.128ZM253.688 270.375C254.019 270.375 254.298 270.31 254.526 270.18C254.755 270.049 254.928 269.881 255.044 269.675C255.162 269.469 255.222 269.253 255.222 269.026V268.259C255.186 268.301 255.108 268.34 254.987 268.376C254.869 268.409 254.732 268.438 254.575 268.464C254.421 268.488 254.271 268.509 254.124 268.528C253.98 268.545 253.863 268.559 253.773 268.571C253.555 268.599 253.351 268.646 253.162 268.71C252.975 268.771 252.823 268.865 252.707 268.99C252.594 269.113 252.537 269.281 252.537 269.494C252.537 269.786 252.645 270.006 252.86 270.155C253.078 270.302 253.354 270.375 253.688 270.375ZM259.961 265.545V266.256H257.135V265.545H259.961ZM257.959 264.239H258.797V269.438C258.797 269.674 258.831 269.852 258.9 269.97C258.971 270.086 259.061 270.164 259.17 270.205C259.281 270.242 259.398 270.261 259.521 270.261C259.613 270.261 259.689 270.257 259.748 270.247C259.808 270.235 259.855 270.226 259.89 270.219L260.061 270.972C260.004 270.993 259.925 271.014 259.823 271.036C259.721 271.059 259.592 271.071 259.436 271.071C259.199 271.071 258.967 271.02 258.74 270.918C258.515 270.817 258.328 270.661 258.179 270.453C258.032 270.245 257.959 269.982 257.959 269.665V264.239ZM262.827 271.128C262.482 271.128 262.168 271.063 261.886 270.933C261.604 270.8 261.381 270.609 261.215 270.361C261.049 270.11 260.966 269.807 260.966 269.452C260.966 269.139 261.028 268.886 261.151 268.692C261.274 268.495 261.439 268.341 261.645 268.23C261.851 268.119 262.078 268.036 262.327 267.982C262.577 267.925 262.83 267.88 263.083 267.847C263.414 267.804 263.683 267.772 263.889 267.751C264.097 267.727 264.249 267.688 264.344 267.634C264.441 267.579 264.489 267.484 264.489 267.349V267.321C264.489 266.971 264.393 266.698 264.202 266.504C264.012 266.31 263.724 266.213 263.339 266.213C262.939 266.213 262.625 266.301 262.398 266.476C262.17 266.651 262.01 266.838 261.918 267.037L261.123 266.753C261.265 266.421 261.454 266.163 261.691 265.979C261.93 265.792 262.19 265.661 262.472 265.588C262.756 265.512 263.036 265.474 263.31 265.474C263.485 265.474 263.687 265.496 263.914 265.538C264.144 265.579 264.365 265.663 264.578 265.79C264.793 265.918 264.972 266.111 265.114 266.369C265.256 266.627 265.327 266.973 265.327 267.406V271H264.489V270.261H264.447C264.39 270.38 264.295 270.506 264.162 270.641C264.03 270.776 263.854 270.891 263.633 270.986C263.413 271.08 263.144 271.128 262.827 271.128ZM262.955 270.375C263.287 270.375 263.566 270.31 263.793 270.18C264.023 270.049 264.196 269.881 264.312 269.675C264.43 269.469 264.489 269.253 264.489 269.026V268.259C264.454 268.301 264.376 268.34 264.255 268.376C264.136 268.409 263.999 268.438 263.843 268.464C263.689 268.488 263.539 268.509 263.392 268.528C263.247 268.545 263.13 268.559 263.04 268.571C262.823 268.599 262.619 268.646 262.43 268.71C262.242 268.771 262.091 268.865 261.975 268.99C261.861 269.113 261.805 269.281 261.805 269.494C261.805 269.786 261.912 270.006 262.128 270.155C262.345 270.302 262.621 270.375 262.955 270.375ZM273.76 265.545C273.718 265.186 273.545 264.906 273.242 264.707C272.939 264.509 272.567 264.409 272.127 264.409C271.805 264.409 271.523 264.461 271.282 264.565C271.042 264.67 270.855 264.813 270.721 264.995C270.588 265.177 270.522 265.384 270.522 265.616C270.522 265.811 270.568 265.978 270.66 266.117C270.755 266.254 270.876 266.369 271.022 266.462C271.169 266.552 271.323 266.626 271.484 266.685C271.645 266.742 271.793 266.788 271.928 266.824L272.667 267.023C272.856 267.072 273.067 267.141 273.299 267.229C273.533 267.316 273.757 267.436 273.97 267.587C274.185 267.737 274.363 267.928 274.502 268.163C274.642 268.397 274.712 268.685 274.712 269.026C274.712 269.419 274.609 269.774 274.403 270.091C274.199 270.408 273.901 270.66 273.508 270.847C273.118 271.034 272.643 271.128 272.084 271.128C271.563 271.128 271.112 271.044 270.731 270.876C270.352 270.708 270.054 270.473 269.836 270.173C269.621 269.872 269.499 269.523 269.471 269.125H270.38C270.403 269.4 270.496 269.627 270.657 269.807C270.82 269.984 271.026 270.117 271.275 270.205C271.525 270.29 271.795 270.332 272.084 270.332C272.42 270.332 272.722 270.278 272.99 270.169C273.257 270.058 273.469 269.904 273.625 269.707C273.782 269.509 273.86 269.277 273.86 269.011C273.86 268.77 273.792 268.573 273.657 268.422C273.522 268.27 273.345 268.147 273.125 268.053C272.904 267.958 272.667 267.875 272.411 267.804L271.516 267.548C270.948 267.385 270.498 267.152 270.167 266.849C269.835 266.546 269.669 266.149 269.669 265.659C269.669 265.252 269.779 264.897 270 264.594C270.222 264.288 270.52 264.052 270.895 263.884C271.271 263.713 271.691 263.628 272.155 263.628C272.624 263.628 273.041 263.712 273.405 263.88C273.77 264.046 274.059 264.273 274.272 264.562C274.487 264.851 274.601 265.179 274.613 265.545H273.76ZM278.262 271.114C277.751 271.114 277.311 270.993 276.941 270.751C276.572 270.51 276.288 270.177 276.089 269.754C275.89 269.33 275.791 268.846 275.791 268.301C275.791 267.747 275.892 267.258 276.096 266.835C276.302 266.408 276.588 266.076 276.955 265.837C277.325 265.595 277.756 265.474 278.248 265.474C278.632 265.474 278.977 265.545 279.285 265.688C279.593 265.83 279.845 266.028 280.041 266.284C280.238 266.54 280.36 266.838 280.407 267.179H279.569C279.505 266.93 279.363 266.71 279.143 266.518C278.925 266.324 278.632 266.227 278.262 266.227C277.936 266.227 277.649 266.312 277.403 266.483C277.159 266.651 276.968 266.889 276.831 267.197C276.696 267.502 276.629 267.861 276.629 268.273C276.629 268.694 276.695 269.061 276.828 269.374C276.963 269.686 277.152 269.929 277.396 270.102C277.642 270.274 277.931 270.361 278.262 270.361C278.48 270.361 278.678 270.323 278.855 270.247C279.033 270.171 279.183 270.062 279.306 269.92C279.429 269.778 279.517 269.608 279.569 269.409H280.407C280.36 269.731 280.243 270.021 280.056 270.279C279.871 270.535 279.626 270.738 279.32 270.89C279.017 271.039 278.665 271.114 278.262 271.114ZM283.237 271.128C282.892 271.128 282.578 271.063 282.296 270.933C282.015 270.8 281.791 270.609 281.625 270.361C281.459 270.11 281.377 269.807 281.377 269.452C281.377 269.139 281.438 268.886 281.561 268.692C281.684 268.495 281.849 268.341 282.055 268.23C282.261 268.119 282.488 268.036 282.737 267.982C282.988 267.925 283.24 267.88 283.493 267.847C283.825 267.804 284.093 267.772 284.299 267.751C284.508 267.727 284.659 267.688 284.754 267.634C284.851 267.579 284.899 267.484 284.899 267.349V267.321C284.899 266.971 284.803 266.698 284.612 266.504C284.422 266.31 284.135 266.213 283.749 266.213C283.349 266.213 283.035 266.301 282.808 266.476C282.58 266.651 282.421 266.838 282.328 267.037L281.533 266.753C281.675 266.421 281.864 266.163 282.101 265.979C282.34 265.792 282.601 265.661 282.882 265.588C283.166 265.512 283.446 265.474 283.72 265.474C283.896 265.474 284.097 265.496 284.324 265.538C284.554 265.579 284.775 265.663 284.988 265.79C285.204 265.918 285.382 266.111 285.524 266.369C285.666 266.627 285.737 266.973 285.737 267.406V271H284.899V270.261H284.857C284.8 270.38 284.705 270.506 284.573 270.641C284.44 270.776 284.264 270.891 284.044 270.986C283.823 271.08 283.555 271.128 283.237 271.128ZM283.365 270.375C283.697 270.375 283.976 270.31 284.203 270.18C284.433 270.049 284.606 269.881 284.722 269.675C284.84 269.469 284.899 269.253 284.899 269.026V268.259C284.864 268.301 284.786 268.34 284.665 268.376C284.547 268.409 284.409 268.438 284.253 268.464C284.099 268.488 283.949 268.509 283.802 268.528C283.658 268.545 283.54 268.559 283.45 268.571C283.233 268.599 283.029 268.646 282.84 268.71C282.653 268.771 282.501 268.865 282.385 268.99C282.271 269.113 282.215 269.281 282.215 269.494C282.215 269.786 282.322 270.006 282.538 270.155C282.756 270.302 283.031 270.375 283.365 270.375ZM288.105 263.727V271H287.267V263.727H288.105ZM289.64 271V265.545H290.478V271H289.64ZM290.066 264.636C289.903 264.636 289.762 264.581 289.644 264.469C289.528 264.358 289.47 264.224 289.47 264.068C289.47 263.912 289.528 263.778 289.644 263.667C289.762 263.556 289.903 263.5 290.066 263.5C290.23 263.5 290.369 263.556 290.485 263.667C290.604 263.778 290.663 263.912 290.663 264.068C290.663 264.224 290.604 264.358 290.485 264.469C290.369 264.581 290.23 264.636 290.066 264.636ZM292.851 267.719V271H292.013V265.545H292.823V266.398H292.894C293.022 266.121 293.216 265.898 293.476 265.73C293.737 265.56 294.073 265.474 294.485 265.474C294.854 265.474 295.177 265.55 295.454 265.702C295.731 265.851 295.947 266.078 296.1 266.384C296.254 266.687 296.331 267.07 296.331 267.534V271H295.493V267.591C295.493 267.162 295.382 266.829 295.159 266.589C294.937 266.348 294.632 266.227 294.243 266.227C293.976 266.227 293.737 266.285 293.526 266.401C293.318 266.517 293.153 266.687 293.032 266.909C292.912 267.132 292.851 267.402 292.851 267.719ZM300.064 273.159C299.66 273.159 299.312 273.107 299.02 273.003C298.729 272.901 298.487 272.766 298.292 272.598C298.101 272.432 297.948 272.255 297.834 272.065L298.502 271.597C298.578 271.696 298.674 271.81 298.79 271.938C298.906 272.068 299.064 272.18 299.265 272.275C299.469 272.372 299.735 272.42 300.064 272.42C300.505 272.42 300.868 272.314 301.155 272.101C301.441 271.888 301.584 271.554 301.584 271.099V269.991H301.513C301.452 270.091 301.364 270.214 301.251 270.361C301.139 270.505 300.978 270.634 300.768 270.748C300.559 270.859 300.278 270.915 299.922 270.915C299.482 270.915 299.087 270.811 298.736 270.602C298.388 270.394 298.113 270.091 297.909 269.693C297.708 269.295 297.607 268.812 297.607 268.244C297.607 267.686 297.705 267.199 297.902 266.785C298.098 266.368 298.372 266.046 298.722 265.819C299.073 265.589 299.477 265.474 299.937 265.474C300.292 265.474 300.573 265.534 300.782 265.652C300.992 265.768 301.153 265.901 301.265 266.05C301.378 266.196 301.466 266.317 301.528 266.412H301.613V265.545H302.422V271.156C302.422 271.625 302.316 272.006 302.103 272.3C301.892 272.596 301.608 272.812 301.251 272.95C300.895 273.089 300.5 273.159 300.064 273.159ZM300.036 270.162C300.372 270.162 300.656 270.085 300.888 269.931C301.12 269.777 301.297 269.556 301.417 269.267C301.538 268.978 301.599 268.633 301.599 268.23C301.599 267.837 301.539 267.49 301.421 267.19C301.303 266.889 301.127 266.653 300.895 266.483C300.663 266.312 300.377 266.227 300.036 266.227C299.681 266.227 299.385 266.317 299.148 266.497C298.914 266.677 298.738 266.919 298.619 267.222C298.503 267.525 298.445 267.861 298.445 268.23C298.445 268.609 298.504 268.944 298.623 269.235C298.743 269.524 298.921 269.751 299.155 269.917C299.392 270.08 299.686 270.162 300.036 270.162Z" fill="#E6E6E6"/>
<rect opacity="0.5" x="228" y="297" width="10" height="10" rx="5" fill="#D9D9D9"/>
<rect opacity="0.5" x="228" y="229" width="10" height="10" rx="5" fill="#D9D9D9"/>
<rect opacity="0.5" x="228" y="263" width="10" height="10" rx="5" fill="#D9D9D9"/>
<path d="M251.648 296.727V304H250.795L246.832 298.29H246.761V304H245.881V296.727H246.733L250.71 302.452H250.781V296.727H251.648ZM255.512 304.114C255.02 304.114 254.588 303.996 254.216 303.762C253.847 303.528 253.558 303.2 253.35 302.778C253.144 302.357 253.041 301.865 253.041 301.301C253.041 300.733 253.144 300.237 253.35 299.813C253.558 299.389 253.847 299.06 254.216 298.826C254.588 298.592 255.02 298.474 255.512 298.474C256.005 298.474 256.436 298.592 256.805 298.826C257.177 299.06 257.465 299.389 257.671 299.813C257.88 300.237 257.984 300.733 257.984 301.301C257.984 301.865 257.88 302.357 257.671 302.778C257.465 303.2 257.177 303.528 256.805 303.762C256.436 303.996 256.005 304.114 255.512 304.114ZM255.512 303.361C255.886 303.361 256.194 303.265 256.436 303.073C256.677 302.881 256.856 302.629 256.972 302.317C257.088 302.004 257.146 301.666 257.146 301.301C257.146 300.937 257.088 300.597 256.972 300.282C256.856 299.967 256.677 299.713 256.436 299.518C256.194 299.324 255.886 299.227 255.512 299.227C255.138 299.227 254.83 299.324 254.589 299.518C254.347 299.713 254.169 299.967 254.053 300.282C253.937 300.597 253.879 300.937 253.879 301.301C253.879 301.666 253.937 302.004 254.053 302.317C254.169 302.629 254.347 302.881 254.589 303.073C254.83 303.265 255.138 303.361 255.512 303.361ZM261.635 298.545V299.256H258.809V298.545H261.635ZM259.632 297.239H260.471V302.438C260.471 302.674 260.505 302.852 260.574 302.97C260.645 303.086 260.734 303.164 260.843 303.205C260.955 303.242 261.072 303.261 261.195 303.261C261.287 303.261 261.363 303.257 261.422 303.247C261.481 303.235 261.529 303.226 261.564 303.219L261.735 303.972C261.678 303.993 261.599 304.014 261.497 304.036C261.395 304.059 261.266 304.071 261.11 304.071C260.873 304.071 260.641 304.02 260.414 303.918C260.189 303.817 260.002 303.661 259.853 303.453C259.706 303.245 259.632 302.982 259.632 302.665V297.239ZM265.822 304V296.727H268.279C268.848 296.727 269.314 296.824 269.679 297.018C270.043 297.21 270.313 297.474 270.488 297.81C270.663 298.147 270.751 298.529 270.751 298.957C270.751 299.386 270.663 299.766 270.488 300.097C270.313 300.429 270.044 300.689 269.682 300.879C269.32 301.066 268.857 301.159 268.294 301.159H266.305V300.364H268.265C268.654 300.364 268.966 300.307 269.203 300.193C269.442 300.08 269.615 299.919 269.721 299.71C269.83 299.5 269.885 299.249 269.885 298.957C269.885 298.666 269.83 298.412 269.721 298.194C269.612 297.976 269.438 297.808 269.199 297.69C268.96 297.569 268.644 297.509 268.251 297.509H266.703V304H265.822ZM269.245 300.733L271.035 304H270.012L268.251 300.733H269.245ZM274.333 304.114C273.808 304.114 273.354 303.998 272.973 303.766C272.594 303.531 272.302 303.205 272.096 302.786C271.892 302.364 271.791 301.874 271.791 301.315C271.791 300.757 271.892 300.264 272.096 299.838C272.302 299.41 272.588 299.076 272.955 298.837C273.325 298.595 273.756 298.474 274.248 298.474C274.532 298.474 274.813 298.522 275.09 298.616C275.367 298.711 275.619 298.865 275.846 299.078C276.073 299.289 276.254 299.568 276.389 299.916C276.524 300.264 276.592 300.693 276.592 301.202V301.557H272.387V300.832H275.74C275.74 300.525 275.678 300.25 275.555 300.009C275.434 299.767 275.261 299.576 275.036 299.437C274.814 299.297 274.551 299.227 274.248 299.227C273.914 299.227 273.625 299.31 273.382 299.476C273.14 299.639 272.954 299.852 272.824 300.115C272.694 300.378 272.629 300.66 272.629 300.96V301.443C272.629 301.855 272.7 302.204 272.842 302.491C272.986 302.775 273.186 302.991 273.442 303.141C273.698 303.287 273.995 303.361 274.333 303.361C274.553 303.361 274.752 303.33 274.93 303.268C275.11 303.205 275.265 303.11 275.395 302.984C275.525 302.857 275.626 302.698 275.697 302.509L276.507 302.736C276.421 303.01 276.278 303.252 276.077 303.46C275.876 303.666 275.627 303.827 275.331 303.943C275.035 304.057 274.703 304.114 274.333 304.114ZM281.73 299.767L280.977 299.98C280.93 299.855 280.86 299.733 280.768 299.614C280.678 299.494 280.555 299.394 280.399 299.316C280.242 299.238 280.042 299.199 279.798 299.199C279.465 299.199 279.186 299.276 278.964 299.43C278.744 299.581 278.634 299.774 278.634 300.009C278.634 300.217 278.709 300.381 278.861 300.502C279.012 300.623 279.249 300.723 279.571 300.804L280.381 301.003C280.869 301.121 281.232 301.302 281.471 301.546C281.71 301.788 281.83 302.099 281.83 302.48C281.83 302.793 281.74 303.072 281.56 303.318C281.382 303.564 281.134 303.759 280.814 303.901C280.494 304.043 280.123 304.114 279.699 304.114C279.143 304.114 278.682 303.993 278.318 303.751C277.953 303.51 277.722 303.157 277.625 302.693L278.421 302.494C278.496 302.788 278.64 303.008 278.85 303.155C279.063 303.302 279.342 303.375 279.685 303.375C280.075 303.375 280.386 303.292 280.615 303.126C280.847 302.958 280.963 302.757 280.963 302.523C280.963 302.333 280.897 302.175 280.764 302.047C280.632 301.917 280.428 301.82 280.154 301.756L279.244 301.543C278.745 301.424 278.378 301.241 278.144 300.992C277.912 300.741 277.796 300.428 277.796 300.051C277.796 299.743 277.882 299.471 278.055 299.234C278.23 298.998 278.468 298.812 278.769 298.677C279.072 298.542 279.415 298.474 279.798 298.474C280.338 298.474 280.762 298.593 281.07 298.83C281.38 299.066 281.6 299.379 281.73 299.767ZM283.091 306.045V298.545H283.901V299.412H284C284.062 299.317 284.147 299.196 284.256 299.05C284.367 298.901 284.526 298.768 284.732 298.652C284.94 298.534 285.222 298.474 285.577 298.474C286.036 298.474 286.441 298.589 286.792 298.819C287.142 299.049 287.415 299.374 287.612 299.795C287.808 300.217 287.907 300.714 287.907 301.287C287.907 301.865 287.808 302.365 287.612 302.789C287.415 303.21 287.143 303.537 286.795 303.769C286.447 303.999 286.046 304.114 285.591 304.114C285.241 304.114 284.96 304.056 284.75 303.94C284.539 303.821 284.377 303.687 284.263 303.538C284.15 303.387 284.062 303.261 284 303.162H283.929V306.045H283.091ZM283.915 301.273C283.915 301.685 283.975 302.048 284.096 302.363C284.217 302.675 284.393 302.92 284.625 303.098C284.857 303.273 285.141 303.361 285.478 303.361C285.828 303.361 286.12 303.268 286.355 303.084C286.592 302.897 286.769 302.646 286.887 302.331C287.008 302.014 287.069 301.661 287.069 301.273C287.069 300.889 287.009 300.544 286.891 300.236C286.775 299.926 286.599 299.681 286.362 299.501C286.127 299.318 285.833 299.227 285.478 299.227C285.137 299.227 284.85 299.314 284.618 299.487C284.386 299.657 284.211 299.896 284.093 300.204C283.974 300.509 283.915 300.866 283.915 301.273ZM291.401 304.114C290.908 304.114 290.476 303.996 290.105 303.762C289.735 303.528 289.447 303.2 289.238 302.778C289.032 302.357 288.929 301.865 288.929 301.301C288.929 300.733 289.032 300.237 289.238 299.813C289.447 299.389 289.735 299.06 290.105 298.826C290.476 298.592 290.908 298.474 291.401 298.474C291.893 298.474 292.324 298.592 292.694 298.826C293.065 299.06 293.354 299.389 293.56 299.813C293.768 300.237 293.873 300.733 293.873 301.301C293.873 301.865 293.768 302.357 293.56 302.778C293.354 303.2 293.065 303.528 292.694 303.762C292.324 303.996 291.893 304.114 291.401 304.114ZM291.401 303.361C291.775 303.361 292.083 303.265 292.324 303.073C292.566 302.881 292.744 302.629 292.86 302.317C292.976 302.004 293.034 301.666 293.034 301.301C293.034 300.937 292.976 300.597 292.86 300.282C292.744 299.967 292.566 299.713 292.324 299.518C292.083 299.324 291.775 299.227 291.401 299.227C291.027 299.227 290.719 299.324 290.478 299.518C290.236 299.713 290.057 299.967 289.941 300.282C289.825 300.597 289.767 300.937 289.767 301.301C289.767 301.666 289.825 302.004 289.941 302.317C290.057 302.629 290.236 302.881 290.478 303.073C290.719 303.265 291.027 303.361 291.401 303.361ZM295.99 300.719V304H295.152V298.545H295.961V299.398H296.032C296.16 299.121 296.354 298.898 296.615 298.73C296.875 298.56 297.211 298.474 297.623 298.474C297.993 298.474 298.316 298.55 298.593 298.702C298.87 298.851 299.085 299.078 299.239 299.384C299.393 299.687 299.47 300.07 299.47 300.534V304H298.632V300.591C298.632 300.162 298.521 299.829 298.298 299.589C298.076 299.348 297.77 299.227 297.382 299.227C297.114 299.227 296.875 299.285 296.665 299.401C296.456 299.517 296.292 299.687 296.171 299.909C296.05 300.132 295.99 300.402 295.99 300.719ZM304.865 299.767L304.112 299.98C304.065 299.855 303.995 299.733 303.903 299.614C303.813 299.494 303.69 299.394 303.533 299.316C303.377 299.238 303.177 299.199 302.933 299.199C302.599 299.199 302.321 299.276 302.099 299.43C301.879 299.581 301.768 299.774 301.768 300.009C301.768 300.217 301.844 300.381 301.996 300.502C302.147 300.623 302.384 300.723 302.706 300.804L303.516 301.003C304.003 301.121 304.367 301.302 304.606 301.546C304.845 301.788 304.964 302.099 304.964 302.48C304.964 302.793 304.875 303.072 304.695 303.318C304.517 303.564 304.268 303.759 303.949 303.901C303.629 304.043 303.258 304.114 302.834 304.114C302.277 304.114 301.817 303.993 301.452 303.751C301.088 303.51 300.857 303.157 300.76 302.693L301.555 302.494C301.631 302.788 301.774 303.008 301.985 303.155C302.198 303.302 302.476 303.375 302.82 303.375C303.21 303.375 303.52 303.292 303.75 303.126C303.982 302.958 304.098 302.757 304.098 302.523C304.098 302.333 304.032 302.175 303.899 302.047C303.767 301.917 303.563 301.82 303.288 301.756L302.379 301.543C301.88 301.424 301.513 301.241 301.278 300.992C301.046 300.741 300.93 300.428 300.93 300.051C300.93 299.743 301.017 299.471 301.19 299.234C301.365 298.998 301.603 298.812 301.903 298.677C302.206 298.542 302.55 298.474 302.933 298.474C303.473 298.474 303.897 298.593 304.205 298.83C304.515 299.066 304.735 299.379 304.865 299.767ZM306.226 304V298.545H307.064V304H306.226ZM306.652 297.636C306.489 297.636 306.348 297.581 306.23 297.469C306.114 297.358 306.056 297.224 306.056 297.068C306.056 296.912 306.114 296.778 306.23 296.667C306.348 296.556 306.489 296.5 306.652 296.5C306.816 296.5 306.955 296.556 307.071 296.667C307.19 296.778 307.249 296.912 307.249 297.068C307.249 297.224 307.19 297.358 307.071 297.469C306.955 297.581 306.816 297.636 306.652 297.636ZM313.059 298.545L311.042 304H310.19L308.173 298.545H309.082L310.588 302.892H310.645L312.15 298.545H313.059ZM316.257 304.114C315.732 304.114 315.278 303.998 314.897 303.766C314.518 303.531 314.226 303.205 314.02 302.786C313.816 302.364 313.714 301.874 313.714 301.315C313.714 300.757 313.816 300.264 314.02 299.838C314.226 299.41 314.512 299.076 314.879 298.837C315.249 298.595 315.679 298.474 316.172 298.474C316.456 298.474 316.737 298.522 317.013 298.616C317.29 298.711 317.543 298.865 317.77 299.078C317.997 299.289 318.178 299.568 318.313 299.916C318.448 300.264 318.516 300.693 318.516 301.202V301.557H314.311V300.832H317.663C317.663 300.525 317.602 300.25 317.479 300.009C317.358 299.767 317.185 299.576 316.96 299.437C316.738 299.297 316.475 299.227 316.172 299.227C315.838 299.227 315.549 299.31 315.305 299.476C315.064 299.639 314.878 299.852 314.748 300.115C314.618 300.378 314.553 300.66 314.553 300.96V301.443C314.553 301.855 314.624 302.204 314.766 302.491C314.91 302.775 315.11 302.991 315.366 303.141C315.621 303.287 315.919 303.361 316.257 303.361C316.477 303.361 316.676 303.33 316.854 303.268C317.034 303.205 317.189 303.11 317.319 302.984C317.449 302.857 317.55 302.698 317.621 302.509L318.43 302.736C318.345 303.01 318.202 303.252 318.001 303.46C317.799 303.666 317.551 303.827 317.255 303.943C316.959 304.057 316.626 304.114 316.257 304.114Z" fill="#F0F0EF"/>
<defs>
<filter id="filter0_d_6052_68" x="45" y="109" width="310" height="126" filterUnits="userSpaceOnUse" color-interpolation-filters="sRGB">
<feFlood flood-opacity="0" result="BackgroundImageFix"/>
<feColorMatrix in="SourceAlpha" type="matrix" values="0 0 0 0 0 0 0 0 0 0 0 0 0 0 0 0 0 0 127 0" result="hardAlpha"/>
<feOffset dy="4"/>
<feGaussianBlur stdDeviation="7.5"/>
<feColorMatrix type="matrix" values="0 0 0 0 0 0 0 0 0 0 0 0 0 0 0 0 0 0 0.1 0"/>
<feBlend mode="normal" in2="BackgroundImageFix" result="effect1_dropShadow_6052_68"/>
<feBlend mode="normal" in="SourceGraphic" in2="effect1_dropShadow_6052_68" result="shape"/>
</filter>
<filter id="filter1_d_6052_68" x="299" y="365" width="230" height="125" filterUnits="userSpaceOnUse" color-interpolation-filters="sRGB">
<feFlood flood-opacity="0" result="BackgroundImageFix"/>
<feColorMatrix in="SourceAlpha" type="matrix" values="0 0 0 0 0 0 0 0 0 0 0 0 0 0 0 0 0 0 127 0" result="hardAlpha"/>
<feOffset dy="4"/>
<feGaussianBlur stdDeviation="7.5"/>
<feColorMatrix type="matrix" values="0 0 0 0 0 0 0 0 0 0 0 0 0 0 0 0 0 0 0.1 0"/>
<feBlend mode="normal" in2="BackgroundImageFix" result="effect1_dropShadow_6052_68"/>
<feBlend mode="normal" in="SourceGraphic" in2="effect1_dropShadow_6052_68" result="shape"/>
</filter>
<filter id="filter2_d_6052_68" x="197" y="178" width="235" height="192" filterUnits="userSpaceOnUse" color-interpolation-filters="sRGB">
<feFlood flood-opacity="0" result="BackgroundImageFix"/>
<feColorMatrix in="SourceAlpha" type="matrix" values="0 0 0 0 0 0 0 0 0 0 0 0 0 0 0 0 0 0 127 0" result="hardAlpha"/>
<feOffset dy="4"/>
<feGaussianBlur stdDeviation="7.5"/>
<feColorMatrix type="matrix" values="0 0 0 0 0 0 0 0 0 0 0 0 0 0 0 0 0 0 0.2 0"/>
<feBlend mode="normal" in2="BackgroundImageFix" result="effect1_dropShadow_6052_68"/>
<feBlend mode="normal" in="SourceGraphic" in2="effect1_dropShadow_6052_68" result="shape"/>
</filter>
</defs>
</svg>
